<svg width="17" height="20" viewBox="0 0 17 20" fill="none" xmlns="http://www.w3.org/2000/svg">
<path d="M14.0406 19.1999C12.9566 20.2519 11.7606 20.0879 10.6206 19.5919C9.40863 19.0859 8.30063 19.0539 7.02063 19.5919C5.42663 20.2799 4.58063 20.0799 3.62063 19.1999C-1.79937 13.6199 -0.999375 5.11997 5.16063 4.79997C6.65463 4.87997 7.70063 5.62597 8.58063 5.68797C9.88863 5.42197 11.1406 4.65998 12.5406 4.75997C14.2226 4.89597 15.4806 5.55997 16.3206 6.75397C12.8606 8.83396 13.6806 13.3939 16.8586 14.6739C16.2226 16.3439 15.4066 17.9939 14.0386 19.2139L14.0406 19.1999ZM8.46063 4.73997C8.29863 2.25998 10.3086 0.219988 12.6206 0.019989C12.9386 2.87998 10.0206 5.01997 8.46063 4.73997Z" fill="black"/>
</svg>
