<svg width="20" height="20" viewBox="0 0 20 20" fill="none" xmlns="http://www.w3.org/2000/svg">
<g clip-path="url(#clip0_1568_4403)">
<path d="M7.62764 0.5L6.44014 0.796875V1.6875H7.62764V0.5ZM7.62764 1.6875V2.875H6.44014V1.6875C4.94627 1.70531 3.85258 1.65188 2.95958 2.14469C2.51189 2.39169 2.15683 2.80969 1.96208 3.32981C1.76614 3.85113 1.69727 4.46981 1.69727 5.25V14.75C1.69727 15.5314 1.76614 16.1501 1.96208 16.6702C2.15683 17.1927 2.51189 17.6071 2.95958 17.8541C3.85258 18.3469 4.94627 18.2959 6.44014 18.3125H10.0074V17.125H6.44014C4.94389 17.1084 3.96183 17.0538 3.5272 16.8151C3.30989 16.6939 3.18283 16.5621 3.06764 16.2534C2.95127 15.9446 2.87764 15.4542 2.87764 14.75V8.8125C2.87764 8.1095 2.95245 7.61906 3.06764 7.31031C3.18402 7.00156 3.30989 6.86856 3.5272 6.74863C3.96302 6.50875 4.94627 6.45531 6.44727 6.4375H13.5651C15.0614 6.45531 16.0435 6.50875 16.4781 6.74863C16.6966 6.86856 16.8225 7.00156 16.9376 7.31031C17.054 7.61906 17.1276 8.8125 17.1276 8.8125V10H18.3151V5.25C18.3151 4.46981 18.2439 3.85113 18.048 3.32981C17.8684 2.82895 17.516 2.40867 17.054 2.14469C16.1598 1.65188 15.0661 1.70531 13.5723 1.6875V2.875H12.3848V1.6875H7.62764ZM12.3776 1.6875H13.5651V0.5L12.3776 0.796875V1.6875Z" fill="#373737"/>
<path d="M15.3438 11.1875C14.2414 11.1875 13.1843 11.6254 12.4048 12.4048C11.6254 13.1843 11.1875 14.2414 11.1875 15.3438C11.1875 16.4461 11.6254 17.5032 12.4048 18.2827C13.1843 19.0621 14.2414 19.5 15.3438 19.5C16.4461 19.5 17.5032 19.0621 18.2827 18.2827C19.0621 17.5032 19.5 16.4461 19.5 15.3438C19.5 14.2414 19.0621 13.1843 18.2827 12.4048C17.5032 11.6254 16.4461 11.1875 15.3438 11.1875Z" fill="#AA2F4C"/>
</g>
<defs>
<clipPath id="clip0_1568_4403">
<rect width="19" height="19" fill="white" transform="translate(0.5 0.5)"/>
</clipPath>
</defs>
</svg>
