<svg width="16" height="16" viewBox="0 0 16 16" fill="none" xmlns="http://www.w3.org/2000/svg">
<path d="M7.99805 15.9998C12.4163 15.9998 15.998 12.418 15.998 7.99976C15.998 3.58148 12.4163 -0.000244141 7.99805 -0.000244141C3.57977 -0.000244141 -0.00195312 3.58148 -0.00195312 7.99976C-0.00195312 12.418 3.57977 15.9998 7.99805 15.9998Z" fill="#AA2F4C"/>
<path fill-rule="evenodd" clip-rule="evenodd" d="M13.6121 13.6975C12.1023 15.1856 10.0636 16.0135 7.94375 15.9994C5.82394 15.9853 3.79642 15.1302 2.30664 13.6221C2.49717 13.0952 2.86722 12.6523 3.35182 12.3711C3.67843 12.1296 4.03259 11.9278 4.40684 11.77C3.83778 9.81448 5.38471 8.85318 5.97656 8.57642C5.97656 9.4792 6.82187 8.88011 7.87093 8.8915C8.73462 8.90108 10.4426 9.77047 10.4426 8.62354C11.3928 8.9047 12.4284 10.7155 11.7156 11.8279C12.0078 11.9708 12.2839 12.1446 12.5392 12.3463C13.0381 12.6638 13.416 13.1397 13.6121 13.6977V13.6975Z" fill="#222222"/>
<path fill-rule="evenodd" clip-rule="evenodd" d="M6.21979 10.0139L10.0826 10.0372V10.9271L10.0808 10.9408C10.0781 10.9811 10.072 11.0211 10.0626 11.0604L10.0497 11.1487L10.0419 11.1671C9.79184 12.4807 8.69746 12.9884 8.02173 13.3421C7.30976 12.9542 6.30315 12.2555 6.22315 11.0192L6.21979 11.004V10.9522C6.21923 10.9343 6.21889 10.9164 6.21875 10.8986C6.21875 10.9079 6.21953 10.9167 6.21979 10.926V10.0139Z" fill="#F9DCA4"/>
<path opacity="0.11" fill-rule="evenodd" clip-rule="evenodd" d="M10.0818 9.9978V11.0347C10.0811 11.1308 10.0729 11.2267 10.0572 11.3216C10.0376 11.439 10.0046 11.5537 9.95887 11.6636C8.61673 12.6772 6.47821 11.8458 6.13672 10.1146L10.0818 9.9978Z" fill="black"/>
<path fill-rule="evenodd" clip-rule="evenodd" d="M4.68402 6.5332C3.40505 6.86201 4.49243 8.42059 5.29684 8.41386C4.97244 7.83269 4.7643 7.19392 4.68402 6.5332Z" fill="#F9DCA4"/>
<path fill-rule="evenodd" clip-rule="evenodd" d="M11.3475 6.5332C12.6264 6.86201 11.539 8.42059 10.7344 8.4136C11.0589 7.83254 11.2671 7.19386 11.3475 6.5332Z" fill="#F9DCA4"/>
<path fill-rule="evenodd" clip-rule="evenodd" d="M7.95564 2.94116C13.2691 2.94116 11.1984 11.3414 7.95564 11.3414C4.89285 11.3414 2.64223 2.94116 7.95564 2.94116Z" fill="#FFE8BE"/>
<path fill-rule="evenodd" clip-rule="evenodd" d="M5.44793 5.72288C5.49326 5.77257 5.52687 5.83178 5.5463 5.89617C5.56573 5.96056 5.57048 6.02848 5.56019 6.09495C5.54991 6.16141 5.52486 6.22473 5.48688 6.28024C5.4489 6.33575 5.39897 6.38203 5.34074 6.4157C4.96534 6.72457 4.95161 7.80159 4.95161 7.80159C4.80663 7.65764 4.80999 6.88664 4.49569 6.44107C4.18138 5.9955 3.9696 2.87782 5.72728 1.7441C5.61927 1.87114 5.54143 2.02099 5.49959 2.18241C5.45776 2.34383 5.45302 2.51263 5.48573 2.67614C5.48573 2.67614 6.7067 0.925195 8.73234 0.975681C8.57175 1.06324 8.43141 1.18366 8.32047 1.32909C8.20953 1.47451 8.13047 1.64168 8.08845 1.8197C8.08845 1.8197 9.85933 1.08908 11.3351 1.95821C10.9514 2.06425 10.5885 2.2347 10.2619 2.46229C10.9786 2.48196 11.6711 2.61504 12.1933 3.07951C12.0809 3.11559 11.9769 3.17383 11.8874 3.25078C11.7979 3.32774 11.7247 3.42185 11.6722 3.52756C11.6197 3.63327 11.5889 3.74843 11.5817 3.86625C11.5744 3.98406 11.5908 4.10213 11.63 4.21349C11.8516 5.12042 11.8723 5.96418 11.6577 6.41777C11.443 6.87136 11.3418 6.57855 11.2074 7.52975C11.2008 7.59401 11.1794 7.65585 11.1448 7.7104C11.1102 7.76495 11.0634 7.81071 11.0081 7.84405C11.0029 7.91292 11.107 6.87162 10.8385 6.59434C10.5703 6.31732 10.7388 5.97686 10.846 5.77544C11.5942 4.37038 9.35344 3.73375 8.12858 3.7353C7.06631 3.7366 4.50397 4.21944 5.44793 5.72288Z" fill="#212121"/>
<path fill-rule="evenodd" clip-rule="evenodd" d="M5.12109 12.7278C5.12886 12.7376 7.81832 16.2186 10.98 12.676C10.5981 13.7251 8.95101 14.5582 8.00887 14.5556C6.20951 14.5505 5.21378 13.1058 5.12109 12.7278Z" fill="#434955"/>
<path fill-rule="evenodd" clip-rule="evenodd" d="M9.40563 15.8762C9.29948 15.8948 9.19282 15.9112 9.08537 15.9259V13.6121C9.08931 13.5734 9.10826 13.5377 9.13816 13.5127C9.16806 13.4878 9.20654 13.4755 9.24537 13.4785C9.28425 13.4754 9.3228 13.4877 9.35275 13.5126C9.38271 13.5376 9.40169 13.5733 9.40563 13.6121V15.8762ZM6.86323 15.9192C6.75587 15.9038 6.64912 15.8866 6.54297 15.8674V13.6121C6.54691 13.5734 6.56585 13.5377 6.59575 13.5127C6.62565 13.4878 6.66414 13.4755 6.70297 13.4785C6.74189 13.4753 6.7805 13.4876 6.81052 13.5125C6.84053 13.5375 6.85955 13.5733 6.86349 13.6121L6.86323 15.9192Z" fill="#E6E6E6"/>
</svg>
