<svg width="20" height="19" viewBox="0 0 20 19" fill="none" xmlns="http://www.w3.org/2000/svg">
<path d="M2.38267 6.53906L2.48284 6.26383C4.18288 1.59303 9.34746 -0.815253 14.0183 0.88478C18.6891 2.58481 21.0973 7.74939 19.3973 12.4202C17.6973 17.091 12.5327 19.4993 7.8619 17.7992C5.82365 17.0574 4.15953 15.6316 3.11188 13.783C2.65549 12.9777 2.32483 12.1061 2.1329 11.2006C2.07564 10.9304 2.24821 10.665 2.51835 10.6078C2.78849 10.5505 3.0539 10.7231 3.11116 10.9932C3.28183 11.7984 3.57594 12.5736 3.98189 13.29C4.91334 14.9336 6.39131 16.1998 8.20392 16.8596C12.3557 18.3707 16.9465 16.23 18.4576 12.0782C19.9688 7.92635 17.8281 3.33561 13.6762 1.82447C9.52441 0.313332 4.93368 2.45403 3.42254 6.60585L3.32236 6.88108L4.79178 6.19588C5.04205 6.07918 5.33954 6.18746 5.45624 6.43773C5.57294 6.688 5.46466 6.98549 5.21439 7.10219L2.65097 8.29754C2.4007 8.41424 2.10321 8.30596 1.98651 8.05569L0.791162 5.49227C0.674459 5.242 0.782737 4.9445 1.03301 4.8278C1.28328 4.7111 1.58077 4.81938 1.69747 5.06965L2.38267 6.53906ZM14.0582 11.5841C14.2595 11.7732 14.2695 12.0896 14.0805 12.2909C13.8914 12.4922 13.575 12.5021 13.3737 12.3131L10.5978 9.70651C10.4937 9.60874 10.4364 9.47112 10.4403 9.32836L10.5698 4.58671C10.5774 4.31067 10.8072 4.09301 11.0833 4.10055C11.3593 4.10809 11.577 4.33798 11.5694 4.61402L11.446 9.13122L14.0582 11.5841Z" fill="#373737"/>
</svg>
