<svg width="6" height="22" viewBox="0 0 6 22" fill="none" xmlns="http://www.w3.org/2000/svg">
<path d="M3.00065 5.66683C4.46732 5.66683 5.66732 4.46683 5.66732 3.00016C5.66732 1.5335 4.46732 0.333496 3.00065 0.333496C1.53398 0.333496 0.333984 1.5335 0.333984 3.00016C0.333984 4.46683 1.53398 5.66683 3.00065 5.66683ZM3.00065 8.33349C1.53398 8.33349 0.333984 9.53349 0.333984 11.0002C0.333984 12.4668 1.53398 13.6668 3.00065 13.6668C4.46732 13.6668 5.66732 12.4668 5.66732 11.0002C5.66732 9.53349 4.46732 8.33349 3.00065 8.33349ZM3.00065 16.3335C1.53398 16.3335 0.333984 17.5335 0.333984 19.0002C0.333984 20.4668 1.53398 21.6668 3.00065 21.6668C4.46732 21.6668 5.66732 20.4668 5.66732 19.0002C5.66732 17.5335 4.46732 16.3335 3.00065 16.3335Z" fill="white"/>
</svg>
