<svg width="21" height="20" viewBox="0 0 21 20" fill="none" xmlns="http://www.w3.org/2000/svg">
<path d="M17.5 2H15.5V1C15.5 0.734784 15.3946 0.48043 15.2071 0.292893C15.0196 0.105357 14.7652 0 14.5 0C14.2348 0 13.9804 0.105357 13.7929 0.292893C13.6054 0.48043 13.5 0.734784 13.5 1V2H7.5V1C7.5 0.734784 7.39464 0.48043 7.20711 0.292893C7.01957 0.105357 6.76522 0 6.5 0C6.23478 0 5.98043 0.105357 5.79289 0.292893C5.60536 0.48043 5.5 0.734784 5.5 1V2H3.5C2.70435 2 1.94129 2.31607 1.37868 2.87868C0.816071 3.44129 0.5 4.20435 0.5 5V17C0.5 17.7956 0.816071 18.5587 1.37868 19.1213C1.94129 19.6839 2.70435 20 3.5 20H17.5C18.2956 20 19.0587 19.6839 19.6213 19.1213C20.1839 18.5587 20.5 17.7956 20.5 17V5C20.5 4.20435 20.1839 3.44129 19.6213 2.87868C19.0587 2.31607 18.2956 2 17.5 2ZM18.5 17C18.5 17.2652 18.3946 17.5196 18.2071 17.7071C18.0196 17.8946 17.7652 18 17.5 18H3.5C3.23478 18 2.98043 17.8946 2.79289 17.7071C2.60536 17.5196 2.5 17.2652 2.5 17V10H18.5V17ZM18.5 8H2.5V5C2.5 4.73478 2.60536 4.48043 2.79289 4.29289C2.98043 4.10536 3.23478 4 3.5 4H5.5V5C5.5 5.26522 5.60536 5.51957 5.79289 5.70711C5.98043 5.89464 6.23478 6 6.5 6C6.76522 6 7.01957 5.89464 7.20711 5.70711C7.39464 5.51957 7.5 5.26522 7.5 5V4H13.5V5C13.5 5.26522 13.6054 5.51957 13.7929 5.70711C13.9804 5.89464 14.2348 6 14.5 6C14.7652 6 15.0196 5.89464 15.2071 5.70711C15.3946 5.51957 15.5 5.26522 15.5 5V4H17.5C17.7652 4 18.0196 4.10536 18.2071 4.29289C18.3946 4.48043 18.5 4.73478 18.5 5V8Z" fill="#868686"/>
</svg>
