<svg width="20" height="20" viewBox="0 0 20 20" fill="none" xmlns="http://www.w3.org/2000/svg">
<path d="M19.575 10.225C19.575 9.56668 19.5167 8.94168 19.4167 8.33334H10V12.0917H15.3917C15.15 13.325 14.4417 14.3667 13.3917 15.075V17.575H16.6083C18.4917 15.8333 19.575 13.2667 19.575 10.225Z" fill="#4285F4"/>
<path d="M9.99922 20C12.6992 20 14.9576 19.1 16.6076 17.575L13.3909 15.075C12.4909 15.675 11.3492 16.0417 9.99922 16.0417C7.39089 16.0417 5.18255 14.2833 4.39089 11.9083H1.07422V14.4833C2.71589 17.75 6.09089 20 9.99922 20Z" fill="#34A853"/>
<path d="M4.39167 11.9083C4.18333 11.3083 4.075 10.6667 4.075 9.99999C4.075 9.33333 4.19167 8.69166 4.39167 8.09166V5.51666H1.075C0.391666 6.86666 0 8.38333 0 9.99999C0 11.6167 0.391666 13.1333 1.075 14.4833L4.39167 11.9083Z" fill="#FBBC05"/>
<path d="M9.99922 3.95833C11.4742 3.95833 12.7909 4.46667 13.8326 5.45834L16.6826 2.60833C14.9576 0.991668 12.6992 0 9.99922 0C6.09089 0 2.71589 2.25 1.07422 5.51667L4.39089 8.09167C5.18255 5.71667 7.39089 3.95833 9.99922 3.95833Z" fill="#EA4335"/>
</svg>
