<svg width="111" height="64" viewBox="0 0 111 64" fill="none" xmlns="http://www.w3.org/2000/svg">
<path d="M23.1931 0.0757928H31.0945V2.30366C30.6558 2.18357 30.1928 2.18357 29.7541 2.30366C29.405 2.46417 29.1101 2.72212 28.9051 3.04628C28.5954 3.60315 28.4556 4.23813 28.5029 4.87314V63.6887H20.9589L6.12413 12.537V58.8765C6.07159 59.4977 6.21202 60.12 6.52631 60.6589C6.73452 60.9803 7.02854 61.2375 7.3753 61.4015C7.81401 61.5216 8.27706 61.5216 8.71578 61.4015V63.7185H0.851562V61.4015C1.26009 61.5203 1.69415 61.5203 2.10268 61.4015C2.45802 61.2321 2.76525 60.9769 2.99635 60.6589C3.34209 60.1318 3.4995 59.5038 3.44317 58.8765V4.86571C3.49654 4.22458 3.33975 3.58348 2.99635 3.03884C2.76945 2.71696 2.4611 2.46073 2.10268 2.29622C1.69415 2.1774 1.26009 2.1774 0.851562 2.29622V0.0683594H9.9669L25.7847 54.2798V4.86571C25.8381 4.22458 25.6813 3.58348 25.3379 3.03884C25.111 2.71696 24.8026 2.46073 24.4442 2.29622C24.0357 2.1774 23.6016 2.1774 23.1931 2.29622V0.0757928Z" fill="black"/>
<path d="M91.1997 58.9798C91.2126 59.5652 91.4221 60.1293 91.7948 60.5817C92.1675 61.0342 92.6817 61.3487 93.2551 61.475C93.7846 61.5941 94.3342 61.5941 94.8637 61.475V63.7029H81.7343V61.475C82.2035 61.5942 82.695 61.5942 83.1642 61.475C83.5031 61.3168 83.7842 61.0572 83.9685 60.7324C84.2336 60.177 84.2968 59.5469 84.1472 58.9501C84.1472 58.8313 83.9834 57.7767 83.6557 55.7865C83.328 53.7963 82.9358 51.1798 82.479 47.937H71.003C70.4072 51.2046 69.9454 53.8335 69.6178 55.8237C69.2901 57.8139 69.1263 58.8684 69.1263 58.9873C68.9338 59.5686 68.9496 60.1985 69.1709 60.7696C69.3266 61.0948 69.5895 61.3569 69.9157 61.5122C70.3846 61.6329 70.8766 61.6329 71.3455 61.5122V63.74H62.7812V61.5122C63.3108 61.631 63.8603 61.631 64.3899 61.5122C64.8781 61.3785 65.324 61.1229 65.6857 60.7696C66.1425 60.2745 66.4385 59.6532 66.5347 58.9873C66.5347 58.9278 66.6836 58.0515 66.9815 56.3583C67.2794 54.6652 67.6815 52.4373 68.1879 49.6748C68.6844 46.9122 69.2653 43.7784 69.9306 40.2732C70.5958 36.768 71.2512 33.1737 71.8966 29.4903L77.2586 0.260742H81.8162C83.544 11.1525 85.093 20.866 86.4633 29.4012C87.059 33.0846 87.625 36.6789 88.1612 40.1841C88.6974 43.6892 89.1939 46.8231 89.6507 49.5856C90.0975 52.3482 90.4699 54.591 90.7678 56.3138C91.0656 58.0367 91.2096 58.9254 91.1997 58.9798ZM71.3604 45.6126H82.1737C81.8163 43.1768 81.4141 40.5628 80.9672 37.7706C80.5204 34.9783 80.0736 32.1712 79.6268 29.3492C79.1799 26.5272 78.7331 23.7796 78.2863 21.1061C77.8394 18.4327 77.4373 15.9573 77.0798 13.6799C76.5834 15.9375 76.1068 18.4129 75.65 21.1061C75.1932 23.7994 74.6968 26.5471 74.1606 29.3492C73.6641 32.1712 73.1676 34.9783 72.6711 37.7706L71.3604 45.6126Z" fill="black"/>
<path d="M107.801 58.8899C107.754 59.5249 107.894 60.1598 108.204 60.7167C108.367 61.0185 108.63 61.2547 108.948 61.3851C109.129 61.4741 109.328 61.5204 109.529 61.5204C109.731 61.5204 109.929 61.4741 110.11 61.3851V63.702H99.334V61.3851C99.53 61.4755 99.7435 61.5224 99.9595 61.5224C100.176 61.5224 100.389 61.4755 100.585 61.3851C100.867 61.2296 101.099 60.9979 101.255 60.7167C101.565 60.1598 101.705 59.5249 101.658 58.8899V4.7973C101.711 4.13339 101.571 3.46827 101.255 2.88137C101.076 2.59787 100.849 2.34678 100.585 2.13875C100.177 2.01993 99.7425 2.01993 99.334 2.13875V0H110.147V2.13875C109.769 2.01823 109.363 2.01823 108.986 2.13875C108.682 2.32358 108.426 2.57819 108.241 2.88137C107.925 3.46827 107.785 4.13339 107.839 4.7973L107.801 58.8899Z" fill="black"/>
<path d="M53.1087 9.15733C52.7547 9.1593 52.402 9.11685 52.0586 9.03105C51.1855 8.80265 50.3985 8.3245 49.7947 7.6555C49.1909 6.98649 48.7965 6.15587 48.6604 5.26609C48.5242 4.37631 48.6521 3.46622 49.0284 2.64806C49.4046 1.82989 50.0127 1.13943 50.7777 0.661737C51.2744 0.352748 51.8283 0.146207 52.4064 0.0543682C52.9846 -0.0374709 53.5754 -0.0127675 54.1438 0.127026C55.312 0.425494 56.3161 1.16929 56.94 2.19838C57.564 3.22747 57.7579 4.45966 57.4802 5.62988C57.3454 6.21976 57.0943 6.777 56.7414 7.26914C56.3885 7.76127 55.9409 8.17845 55.4247 8.49638C54.73 8.92866 53.9275 9.15768 53.1087 9.15733ZM53.1087 1.48604C52.5638 1.48539 52.0297 1.63717 51.5671 1.92416C51.2181 2.13857 50.9157 2.42058 50.6778 2.75349C50.4399 3.08639 50.2713 3.46347 50.1819 3.86243C49.9939 4.64972 50.1224 5.47913 50.54 6.17311C50.9575 6.86709 51.631 7.37049 52.4161 7.57554C52.7935 7.6682 53.1856 7.68436 53.5694 7.62313C53.9531 7.5619 54.3207 7.4245 54.6502 7.21905C54.999 7.00431 55.3012 6.72226 55.539 6.3894C55.7769 6.05655 55.9457 5.67963 56.0354 5.28082C56.2234 4.49353 56.0949 3.66412 55.6774 2.97015C55.2598 2.27617 54.5864 1.77277 53.8012 1.56771C53.5717 1.51439 53.3369 1.487 53.1012 1.48604H53.1087Z" fill="#AA2F4C"/>
<path d="M39.421 11.6088C38.8691 11.6076 38.3227 11.4992 37.8124 11.2894C37.2159 11.0388 36.6766 10.67 36.2273 10.2053C35.778 9.74069 35.4279 9.18985 35.1984 8.5863C34.7169 7.43247 34.692 6.13955 35.1288 4.96815C35.5655 3.79674 36.4313 2.83398 37.5517 2.27401C38.0763 2.03578 38.6442 1.90699 39.2204 1.8955C39.7967 1.884 40.3693 1.99007 40.903 2.2072C41.4993 2.4596 42.0386 2.82894 42.4889 3.29331C42.9393 3.75767 43.2914 4.3076 43.5244 4.91036C44.0039 6.06634 44.027 7.3604 43.5891 8.53267C43.1512 9.70495 42.2847 10.6686 41.1636 11.2301C40.6166 11.4793 40.0224 11.6084 39.421 11.6088ZM39.2944 3.38056C38.9062 3.38033 38.5226 3.4639 38.1699 3.62559C37.3855 4.02645 36.7843 4.7111 36.4894 5.53939C36.1946 6.36768 36.2283 7.27698 36.5836 8.08132C36.7379 8.49939 36.9769 8.88131 37.2857 9.20327C37.5945 9.52523 37.9664 9.78035 38.3784 9.95274C38.7214 10.1016 39.0915 10.1784 39.4657 10.1784C39.8398 10.1784 40.2099 10.1016 40.553 9.95274C41.3361 9.55053 41.9361 8.86583 42.2308 8.03803C42.5255 7.21024 42.4927 6.30158 42.1392 5.49701C41.9826 5.08023 41.7427 4.69949 41.4342 4.37782C41.1257 4.05615 40.755 3.80023 40.3444 3.62559C40.0233 3.4793 39.6769 3.39613 39.3242 3.38056H39.2944Z" fill="#AA2F4C"/>
<path d="M31.3918 53.1357C31.0791 54.7695 30.4609 55.8165 30.4609 58.0444L31.3769 62.9383L46.1521 19.7549C46.234 18.8637 46.3085 17.9651 46.3904 17.0666C46.3904 17.0072 47.1351 16.0492 46.8075 15.8413C46.4798 15.6333 45.1468 16.1606 45.117 16.2497C40.5444 28.5574 35.9694 40.8527 31.3918 53.1357Z" fill="#AA2F4C"/>
<path d="M60.4209 63.9997L45.9883 20.3707L46.733 12.5435C46.733 12.3727 47.0607 11.9939 47.4777 13.1152C47.5596 13.3677 47.5447 12.6474 47.6043 12.64C47.6639 12.6325 47.649 12.7143 47.649 12.7217C47.716 12.9222 53.212 29.4381 61.0167 52.8604C61.3656 55.0707 61.4407 57.3154 61.2401 59.5439C61.0934 61.0496 60.8194 62.5401 60.4209 63.9997Z" fill="#AA2F4C"/>
<path d="M36.918 2.66602C35.5567 2.75423 34.2059 2.96301 32.8817 3.28984C32.1392 3.43478 31.4601 3.8058 30.938 4.35178C30.705 4.60825 30.5048 4.89264 30.3422 5.19838C30.2021 5.69596 30.2608 6.22832 30.506 6.68362C30.6757 6.97528 30.9376 7.20252 31.2507 7.3297C31.1035 6.93488 31.0659 6.50774 31.142 6.09339C31.218 5.67904 31.4048 5.29286 31.6827 4.9756C31.8808 4.83763 32.1082 4.74705 32.3471 4.71099C32.5861 4.67493 32.8302 4.69432 33.0604 4.76765C34.5498 5.07212 35.3765 6.71331 35.5626 7.12918C36.0095 5.64889 36.4613 4.16116 36.918 2.66602Z" fill="#AA2F4C"/>
<path d="M48.8615 5.85608L45.3359 16.3086L46.7477 16.7821L50.2732 6.32956L48.8615 5.85608Z" fill="#AA2F4C"/>
<path d="M43.6145 7.83583L42.1719 8.2052L45.174 19.8649L46.6167 19.4955L43.6145 7.83583Z" fill="#AA2F4C"/>
</svg>
