<svg width="20" height="20" viewBox="0 0 20 20" fill="none" xmlns="http://www.w3.org/2000/svg">
<path d="M10.0009 15.9089C10.503 15.9089 10.91 15.5019 10.91 14.9998V8.63614C10.91 8.13407 10.503 7.72705 10.0009 7.72705C9.4988 7.72705 9.0918 8.13407 9.0918 8.63614V14.9998C9.0918 15.5019 9.4988 15.9089 10.0009 15.9089Z" fill="#373737"/>
<path d="M10.0004 6.81809C10.7534 6.81809 11.364 6.20757 11.364 5.45446C11.364 4.70134 10.7534 4.09082 10.0004 4.09082C9.24726 4.09082 8.63672 4.70134 8.63672 5.45446C8.63672 6.20757 9.24726 6.81809 10.0004 6.81809Z" fill="#373737"/>
<path fill-rule="evenodd" clip-rule="evenodd" d="M0 10C0 15.5228 4.47715 20 10 20C15.5228 20 20 15.5228 20 10C20 4.47715 15.5228 0 10 0C4.47715 0 0 4.47715 0 10ZM10 18.1818C5.48131 18.1818 1.81818 14.5187 1.81818 10C1.81818 5.48131 5.48131 1.81818 10 1.81818C14.5187 1.81818 18.1818 5.48131 18.1818 10C18.1818 14.5187 14.5187 18.1818 10 18.1818Z" fill="#373737"/>
</svg>
