<svg width="20" height="20" viewBox="0 0 20 20" fill="none" xmlns="http://www.w3.org/2000/svg">
<path d="M14.5827 5.4165H14.591M5.83268 1.6665H14.166C16.4672 1.6665 18.3327 3.53198 18.3327 5.83317V14.1665C18.3327 16.4677 16.4672 18.3332 14.166 18.3332H5.83268C3.5315 18.3332 1.66602 16.4677 1.66602 14.1665V5.83317C1.66602 3.53198 3.5315 1.6665 5.83268 1.6665ZM13.3327 9.47483C13.4355 10.1684 13.3171 10.8767 12.9942 11.499C12.6712 12.1213 12.1603 12.626 11.534 12.9412C10.9078 13.2564 10.1981 13.3662 9.50585 13.2548C8.81363 13.1434 8.17416 12.8166 7.67839 12.3208C7.18262 11.825 6.8558 11.1856 6.74442 10.4933C6.63303 9.80113 6.74275 9.09141 7.05796 8.46515C7.37318 7.83888 7.87785 7.32795 8.50018 7.00504C9.12251 6.68212 9.83082 6.56366 10.5244 6.6665C11.2318 6.7714 11.8867 7.10105 12.3924 7.60676C12.8981 8.11246 13.2278 8.7674 13.3327 9.47483Z" stroke="#373737" stroke-width="1.5" stroke-linecap="round" stroke-linejoin="round"/>
</svg>
