<svg width="20" height="21" viewBox="0 0 20 21" fill="none" xmlns="http://www.w3.org/2000/svg">
<g clip-path="url(#clip0_1344_884)">
<path d="M8.1775 7.65848C8.618 7.219 8.91798 6.65908 9.0395 6.04953C9.16101 5.43998 9.09862 4.80817 8.86019 4.23399C8.62176 3.65982 8.21802 3.16906 7.70001 2.82379C7.18201 2.47852 6.573 2.29423 5.95 2.29423C5.327 2.29423 4.718 2.47852 4.19999 2.82379C3.68198 3.16906 3.27824 3.65982 3.03981 4.23399C2.80139 4.80817 2.73899 5.43998 2.8605 6.04953C2.98202 6.65908 3.282 7.219 3.7225 7.65848L5.95 9.88058L8.1775 7.65848ZM5.95 12.4196L2.449 8.92889C1.75696 8.23821 1.28575 7.35833 1.09495 6.40052C0.904137 5.4427 1.0023 4.44995 1.37702 3.54778C1.75174 2.64561 2.3862 1.87454 3.20017 1.33204C4.01414 0.789551 4.97108 0.5 5.95 0.5C6.92892 0.5 7.88586 0.789551 8.69983 1.33204C9.5138 1.87454 10.1483 2.64561 10.523 3.54778C10.8977 4.44995 10.9959 5.4427 10.8051 6.40052C10.6142 7.35833 10.143 8.23821 9.451 8.92889L5.95 12.4214V12.4196ZM5.95 6.7831C5.59196 6.7831 5.24858 6.64122 4.99541 6.38865C4.74223 6.13609 4.6 5.79355 4.6 5.43637C4.6 5.0792 4.74223 4.73665 4.99541 4.48409C5.24858 4.23153 5.59196 4.08964 5.95 4.08964C6.30804 4.08964 6.65142 4.23153 6.90459 4.48409C7.15777 4.73665 7.3 5.0792 7.3 5.43637C7.3 5.79355 7.15777 6.13609 6.90459 6.38865C6.65142 6.64122 6.30804 6.7831 5.95 6.7831ZM14.05 17.961L16.2775 15.7389C16.718 15.2994 17.018 14.7395 17.1395 14.1299C17.261 13.5204 17.1986 12.8885 16.9602 12.3144C16.7218 11.7402 16.318 11.2494 15.8 10.9042C15.282 10.5589 14.673 10.3746 14.05 10.3746C13.427 10.3746 12.818 10.5589 12.3 10.9042C11.782 11.2494 11.3782 11.7402 11.1398 12.3144C10.9014 12.8885 10.839 13.5204 10.9605 14.1299C11.082 14.7395 11.382 15.2994 11.8225 15.7389L14.05 17.961ZM17.551 17.0093L14.05 20.5L10.549 17.0084C9.85696 16.3177 9.38575 15.4378 9.19494 14.48C9.00414 13.5222 9.1023 12.5294 9.47702 11.6273C9.85174 10.7251 10.4862 9.95402 11.3002 9.41153C12.1141 8.86904 13.0711 8.57948 14.05 8.57948C15.0289 8.57948 15.9859 8.86904 16.7998 9.41153C17.6138 9.95402 18.2483 10.7251 18.623 11.6273C18.9977 12.5294 19.0959 13.5222 18.9051 14.48C18.7142 15.4378 18.243 16.3177 17.551 17.0084V17.0093ZM14.05 14.8635C13.692 14.8635 13.3486 14.7216 13.0954 14.469C12.8422 14.2165 12.7 13.8739 12.7 13.5168C12.7 13.1596 12.8422 12.817 13.0954 12.5645C13.3486 12.3119 13.692 12.17 14.05 12.17C14.408 12.17 14.7514 12.3119 15.0046 12.5645C15.2578 12.817 15.4 13.1596 15.4 13.5168C15.4 13.8739 15.2578 14.2165 15.0046 14.469C14.7514 14.7216 14.408 14.8635 14.05 14.8635Z" fill="#A0153A"/>
</g>
<defs>
<clipPath id="clip0_1344_884">
<rect width="20" height="20" fill="white" transform="translate(0 0.5)"/>
</clipPath>
</defs>
</svg>
