<svg width="21" height="20" viewBox="0 0 21 20" fill="none" xmlns="http://www.w3.org/2000/svg">
<g clip-path="url(#clip0_2295_206)">
<path d="M20.5418 19.9996H1.48047C1.3941 19.9996 1.32422 19.9297 1.32422 19.8433V17.656C1.32422 16.3148 2.01891 15.8012 3.3007 15.3221C4.65027 14.818 5.72352 14.352 6.40434 13.9746C6.42223 13.9645 6.44194 13.9581 6.46232 13.9557C6.48271 13.9533 6.50337 13.9549 6.52312 13.9605C6.54287 13.9661 6.5613 13.9756 6.57737 13.9884C6.59343 14.0012 6.60681 14.017 6.61672 14.035C6.65867 14.1107 6.63137 14.2059 6.55598 14.2474C5.86176 14.6328 4.77387 15.1055 3.40996 15.6151C2.20855 16.0637 1.63668 16.4836 1.63668 17.656V19.6871H20.3855V17.656C20.3855 16.4836 19.8137 16.0637 18.6123 15.6151C17.225 15.0957 16.1664 14.6359 15.4661 14.2477C15.4299 14.2276 15.4031 14.194 15.3916 14.1541C15.3802 14.1143 15.385 14.0716 15.4051 14.0353C15.415 14.0173 15.4284 14.0015 15.4444 13.9887C15.4605 13.9759 15.4789 13.9664 15.4986 13.9607C15.5184 13.9551 15.539 13.9533 15.5594 13.9557C15.5798 13.958 15.5996 13.9643 15.6175 13.9743C16.3044 14.3551 17.3489 14.8089 18.7219 15.3222C20.0036 15.8013 20.6981 16.3148 20.6981 17.656V19.8434C20.6981 19.8639 20.694 19.8842 20.6862 19.9032C20.6783 19.9221 20.6668 19.9393 20.6523 19.9538C20.6378 19.9683 20.6206 19.9799 20.6016 19.9877C20.5826 19.9955 20.5623 19.9996 20.5418 19.9996Z" fill="#2260BD" stroke="#2260BD" stroke-width="0.4"/>
<path d="M11.0114 14.3746C8.84156 14.3746 5.38672 11.2998 5.38672 7.65625C5.38672 7.56988 5.4566 7.5 5.54297 7.5C5.6293 7.5 5.69922 7.56988 5.69922 7.65625C5.69922 11.1304 8.96211 14.0621 11.0114 14.0621C13.0609 14.0621 16.3236 11.1304 16.3236 7.65625C16.3236 7.56988 16.3935 7.5 16.4798 7.5C16.5004 7.49999 16.5207 7.50402 16.5396 7.51187C16.5586 7.51972 16.5758 7.53123 16.5903 7.54574C16.6048 7.56026 16.6164 7.57749 16.6242 7.59645C16.632 7.61541 16.6361 7.63573 16.6361 7.65625C16.636 11.2998 13.181 14.3746 11.0114 14.3746ZM11.0207 15.6245C10.9345 15.6245 10.8629 15.5546 10.8629 15.4683C10.8629 15.3819 10.9313 15.312 11.0176 15.312H11.0207C11.107 15.312 11.1769 15.3819 11.1769 15.4683C11.1769 15.4888 11.1729 15.5091 11.165 15.5281C11.1572 15.547 11.1457 15.5643 11.1312 15.5788C11.1167 15.5933 11.0994 15.6048 11.0805 15.6126C11.0615 15.6205 11.0412 15.6245 11.0207 15.6245ZM11.0207 16.8744C10.9345 16.8744 10.8629 16.8045 10.8629 16.7182C10.8629 16.6318 10.9313 16.562 11.0176 16.562H11.0207C11.107 16.562 11.1769 16.6318 11.1769 16.7182C11.1769 16.7387 11.1729 16.759 11.165 16.778C11.1572 16.797 11.1457 16.8142 11.1312 16.8287C11.1167 16.8432 11.0994 16.8547 11.0805 16.8626C11.0615 16.8704 11.0412 16.8744 11.0207 16.8744ZM11.0207 18.1243C10.9345 18.1243 10.8629 18.0545 10.8629 17.9681C10.8629 17.8818 10.9313 17.8119 11.0176 17.8119H11.0207C11.107 17.8119 11.1769 17.8818 11.1769 17.9681C11.1769 17.9886 11.1729 18.009 11.165 18.0279C11.1572 18.0469 11.1457 18.0641 11.1312 18.0786C11.1167 18.0931 11.0994 18.1046 11.0805 18.1125C11.0615 18.1203 11.0412 18.1244 11.0207 18.1243ZM11.0207 19.3743C10.9345 19.3743 10.8629 19.3044 10.8629 19.218C10.8629 19.1317 10.9313 19.0618 11.0176 19.0618H11.0207C11.107 19.0618 11.1769 19.1317 11.1769 19.218C11.1769 19.2386 11.1729 19.2589 11.165 19.2778C11.1572 19.2968 11.1457 19.314 11.1312 19.3285C11.1167 19.3431 11.0994 19.3546 11.0805 19.3624C11.0615 19.3702 11.0412 19.3743 11.0207 19.3743Z" fill="#2260BD" stroke="#2260BD" stroke-width="0.4"/>
<path d="M14.918 13.7499C14.8316 13.7499 14.7617 13.68 14.7617 13.5937V12.9687C14.7617 12.8824 14.8316 12.8125 14.918 12.8125C15.0043 12.8125 15.0742 12.8824 15.0742 12.9687V13.5937C15.0742 13.68 15.0043 13.7499 14.918 13.7499Z" fill="#2260BD" stroke="#2260BD" stroke-width="0.4"/>
<path d="M13.3555 15.937C13.3228 15.9371 13.291 15.9269 13.2645 15.9078C13.2478 15.8958 13.2337 15.8807 13.2228 15.8633C13.212 15.8459 13.2047 15.8265 13.2013 15.8063C13.198 15.786 13.1986 15.7653 13.2033 15.7454C13.208 15.7254 13.2165 15.7065 13.2285 15.6899L14.7909 13.5025C14.8152 13.4689 14.8517 13.4463 14.8925 13.4396C14.9333 13.4329 14.9751 13.4425 15.0088 13.4665C15.0255 13.4784 15.0397 13.4935 15.0506 13.5109C15.0614 13.5283 15.0687 13.5477 15.0721 13.5679C15.0754 13.5882 15.0747 13.6089 15.0701 13.6289C15.0654 13.6488 15.0568 13.6677 15.0448 13.6844L13.4824 15.8717C13.468 15.892 13.449 15.9085 13.4269 15.9199C13.4048 15.9312 13.3803 15.9371 13.3555 15.937Z" fill="#2260BD" stroke="#2260BD" stroke-width="0.4"/>
<path d="M13.3551 15.9373C13.3308 15.9373 13.3069 15.9316 13.2852 15.9208L11.4104 14.9834C11.392 14.9742 11.3756 14.9615 11.3622 14.946C11.3487 14.9305 11.3384 14.9125 11.332 14.893C11.3255 14.8735 11.3229 14.853 11.3243 14.8325C11.3258 14.812 11.3313 14.7921 11.3405 14.7737C11.359 14.7367 11.3915 14.7085 11.4308 14.6954C11.4701 14.6823 11.513 14.6853 11.5501 14.7038L13.425 15.6413C13.4485 15.6413 13.4718 15.6466 13.493 15.6569C13.5142 15.6672 13.5328 15.6821 13.5475 15.7006C13.5621 15.7191 13.5723 15.7406 13.5775 15.7636C13.5826 15.7866 13.5824 15.8105 13.577 15.8334C13.5716 15.8564 13.5611 15.8778 13.5462 15.8961C13.5313 15.9144 13.5125 15.9291 13.4912 15.9391C13.4698 15.949 13.4465 15.9541 13.4229 15.9538C13.3994 15.9535 13.3762 15.9478 13.3551 15.9373ZM7.10547 13.7499C7.01914 13.7499 6.94922 13.68 6.94922 13.5937V12.9687C6.94921 12.9482 6.95324 12.9279 6.96109 12.9089C6.96894 12.89 6.98045 12.8727 6.99496 12.8582C7.00947 12.8437 7.0267 12.8322 7.04567 12.8244C7.06463 12.8165 7.08495 12.8125 7.10547 12.8125C7.19184 12.8125 7.26172 12.8824 7.26172 12.9687V13.5937C7.26172 13.68 7.19184 13.7499 7.10547 13.7499Z" fill="#2260BD" stroke="#2260BD" stroke-width="0.4"/>
<path d="M8.66802 15.9374C8.64313 15.9374 8.61859 15.9316 8.59644 15.9202C8.5743 15.9088 8.5552 15.8923 8.54076 15.8721L6.97833 13.6847C6.9664 13.668 6.95788 13.6491 6.95325 13.6291C6.94862 13.6091 6.94797 13.5884 6.95134 13.5682C6.95472 13.548 6.96205 13.5286 6.97291 13.5112C6.98378 13.4938 6.99796 13.4787 7.01466 13.4668C7.03133 13.4548 7.05019 13.4463 7.07016 13.4416C7.09014 13.4369 7.11084 13.4362 7.13108 13.4396C7.15132 13.4429 7.1707 13.4502 7.18811 13.4611C7.20553 13.4719 7.22063 13.4861 7.23255 13.5028L8.79497 15.6902C8.8069 15.7069 8.81542 15.7257 8.82006 15.7457C8.82469 15.7657 8.82534 15.7864 8.82197 15.8066C8.8186 15.8269 8.81127 15.8462 8.80042 15.8637C8.78956 15.8811 8.77538 15.8961 8.75869 15.9081C8.73231 15.9272 8.70058 15.9374 8.66802 15.9374Z" fill="#2260BD" stroke="#2260BD" stroke-width="0.4"/>
<path d="M8.66911 15.937C8.64007 15.937 8.61161 15.9289 8.58689 15.9137C8.56218 15.8984 8.5422 15.8766 8.52919 15.8506C8.52 15.8323 8.51452 15.8123 8.51306 15.7918C8.5116 15.7714 8.51419 15.7508 8.52068 15.7313C8.52717 15.7119 8.53743 15.6939 8.55089 15.6784C8.56434 15.6629 8.58071 15.6502 8.59907 15.641L10.474 14.7035C10.511 14.685 10.5539 14.682 10.5932 14.6951C10.6325 14.7082 10.665 14.7364 10.6836 14.7734C10.6928 14.7918 10.6983 14.8118 10.6997 14.8322C10.7012 14.8527 10.6986 14.8733 10.6921 14.8927C10.6856 14.9122 10.6754 14.9302 10.6619 14.9457C10.6485 14.9612 10.6321 14.9739 10.6137 14.9831L8.73884 15.9205C8.71717 15.9313 8.69331 15.9369 8.66911 15.937ZM5.54415 7.18752C5.50522 7.1875 5.4677 7.17296 5.43892 7.14674C5.41014 7.12053 5.39217 7.08452 5.38853 7.04576C5.19243 4.95221 5.64103 3.28912 6.72177 2.10252C8.30396 0.365137 10.899 0.000488281 12.7977 0.000488281C13.9067 0.000488281 14.7303 0.128496 14.8206 0.143145C14.8542 0.148605 14.8851 0.164874 14.9086 0.18948C14.932 0.214086 14.9469 0.245686 14.9508 0.279482C14.9547 0.313278 14.9474 0.347424 14.9302 0.376736C14.9129 0.406048 14.8865 0.428926 14.8551 0.441895C13.7376 0.901777 13.9189 2.01408 14.0122 2.37658C14.0484 2.37498 14.0846 2.37418 14.1209 2.37416C14.5649 2.37416 15.4022 2.48236 16.0223 3.20666C16.7031 4.00189 16.9094 5.29682 16.6354 7.05545C16.6304 7.08707 16.6159 7.1164 16.5937 7.13949C16.5716 7.16257 16.5428 7.17829 16.5115 7.18451C16.4468 7.19826 16.3821 7.1685 16.3476 7.11283L15.0437 4.98068C14.5493 5.17217 12.6983 5.84092 10.968 5.84092C9.24294 5.84092 7.41458 5.17584 6.91884 4.98221L5.67915 7.10994C5.6654 7.13355 5.6457 7.15314 5.62201 7.16675C5.59832 7.18037 5.57148 7.18753 5.54415 7.18752ZM15.1081 4.63061C15.1609 4.63061 15.2122 4.6576 15.2414 4.70537L16.3852 6.57521C16.5502 5.13213 16.3488 4.0685 15.7852 3.40982C15.2463 2.78061 14.5112 2.68662 14.1209 2.68662C13.9997 2.68662 13.9244 2.69623 13.9195 2.69701C13.8463 2.70631 13.7749 2.66361 13.7505 2.59342C13.745 2.57756 13.2683 1.15748 14.3059 0.391855C13.9516 0.354199 13.4215 0.312988 12.7978 0.312988C10.9621 0.312988 8.45814 0.659941 6.95283 2.31299C6.02072 3.33635 5.58849 4.74787 5.66505 6.5135L6.71677 4.70834C6.73585 4.6756 6.76617 4.65089 6.80209 4.63882C6.83802 4.62675 6.8771 4.62813 6.91208 4.64271C6.93329 4.65158 9.05595 5.52842 10.9681 5.52842C12.8808 5.52842 15.027 4.65139 15.0486 4.64256C15.0675 4.63464 15.0877 4.63058 15.1081 4.63061ZM11.4813 19.9992C11.4607 19.9992 11.4404 19.9952 11.4215 19.9874C11.4025 19.9795 11.3853 19.968 11.3708 19.9535C11.3563 19.939 11.3448 19.9218 11.3369 19.9028C11.3291 19.8838 11.325 19.8635 11.3251 19.843V15.4683C11.3251 15.3819 11.3949 15.3121 11.4813 15.3121C11.5676 15.3121 11.6375 15.3819 11.6375 15.4683V19.843C11.6375 19.9294 11.5676 19.9992 11.4813 19.9992ZM10.5438 19.9992C10.4575 19.9992 10.3876 19.9294 10.3876 19.843V15.4683C10.3876 15.3819 10.4575 15.3121 10.5438 15.3121C10.6302 15.3121 10.7001 15.3819 10.7001 15.4683V19.843C10.7001 19.8635 10.6961 19.8838 10.6882 19.9028C10.6804 19.9218 10.6689 19.939 10.6543 19.9535C10.6398 19.968 10.6226 19.9795 10.6036 19.9874C10.5847 19.9952 10.5644 19.9992 10.5438 19.9992ZM17.1059 18.7493H13.9811C13.8948 18.7493 13.8249 18.6794 13.8249 18.5931C13.8249 18.5067 13.8948 18.4369 13.9811 18.4369H17.1059C17.1923 18.4369 17.2622 18.5067 17.2622 18.5931C17.2622 18.6794 17.1923 18.7493 17.1059 18.7493Z" fill="#2260BD" stroke="#2260BD" stroke-width="0.4"/>
<path d="M13.9804 19.3744C13.9599 19.3744 13.9396 19.3704 13.9206 19.3626C13.9017 19.3547 13.8845 19.3432 13.8699 19.3287C13.8554 19.3142 13.8439 19.297 13.8361 19.278C13.8282 19.2591 13.8242 19.2387 13.8242 19.2182V18.5932C13.8242 18.5727 13.8282 18.5524 13.8361 18.5334C13.8439 18.5145 13.8554 18.4972 13.8699 18.4827C13.8845 18.4682 13.9017 18.4567 13.9206 18.4489C13.9396 18.441 13.9599 18.437 13.9804 18.437C14.0668 18.437 14.1367 18.5069 14.1367 18.5932V19.2182C14.1367 19.2387 14.1327 19.2591 14.1248 19.278C14.117 19.297 14.1054 19.3142 14.0909 19.3287C14.0764 19.3432 14.0592 19.3547 14.0402 19.3626C14.0213 19.3704 14.0009 19.3744 13.9804 19.3744Z" fill="#2260BD" stroke="#2260BD" stroke-width="0.4"/>
<path d="M17.1054 19.3744C17.0849 19.3744 17.0646 19.3704 17.0456 19.3626C17.0267 19.3547 17.0095 19.3432 16.9949 19.3287C16.9804 19.3142 16.9689 19.297 16.9611 19.278C16.9532 19.2591 16.9492 19.2387 16.9492 19.2182V18.5932C16.9492 18.5069 17.0191 18.437 17.1054 18.437C17.1918 18.437 17.2617 18.5069 17.2617 18.5932V19.2182C17.2617 19.2387 17.2577 19.2591 17.2498 19.278C17.242 19.297 17.2304 19.3142 17.2159 19.3287C17.2014 19.3432 17.1842 19.3547 17.1652 19.3626C17.1463 19.3704 17.1259 19.3744 17.1054 19.3744Z" fill="#2260BD" stroke="#2260BD" stroke-width="0.4"/>
<path d="M14.2929 18.437C14.262 18.437 14.2318 18.4278 14.2061 18.4107C14.1805 18.3935 14.1604 18.3691 14.1486 18.3405C14.1368 18.312 14.1337 18.2806 14.1397 18.2503C14.1457 18.22 14.1606 18.1921 14.1825 18.1703L15.1199 17.2328C15.1494 17.2046 15.1888 17.189 15.2297 17.1895C15.2705 17.1899 15.3096 17.2063 15.3385 17.2352C15.3673 17.2641 15.3838 17.3032 15.3842 17.344C15.3846 17.3849 15.3691 17.4242 15.3408 17.4538L14.4034 18.3912C14.3889 18.4058 14.3717 18.4173 14.3527 18.4251C14.3338 18.433 14.3135 18.437 14.2929 18.437Z" fill="#2260BD" stroke="#2260BD" stroke-width="0.4"/>
<path d="M16.1674 18.437C16.1469 18.437 16.1266 18.433 16.1076 18.4251C16.0887 18.4173 16.0715 18.4057 16.057 18.3912L15.1196 17.4538C15.0913 17.4242 15.0757 17.3849 15.0762 17.344C15.0766 17.3032 15.093 17.2641 15.1219 17.2352C15.1508 17.2063 15.1899 17.1899 15.2307 17.1895C15.2715 17.189 15.3109 17.2046 15.3405 17.2328L16.2779 18.1703C16.2998 18.1921 16.3146 18.22 16.3207 18.2503C16.3267 18.2806 16.3236 18.312 16.3118 18.3405C16.2999 18.3691 16.2799 18.3935 16.2542 18.4107C16.2285 18.4278 16.1983 18.437 16.1674 18.437Z" fill="#2260BD" stroke="#2260BD" stroke-width="0.4"/>
<path d="M16.7929 18.4369C16.7724 18.437 16.7521 18.4329 16.7331 18.4251C16.7141 18.4172 16.6969 18.4057 16.6824 18.3912L15.745 17.4537C15.73 17.4393 15.7181 17.422 15.71 17.403C15.7018 17.3839 15.6975 17.3634 15.6973 17.3427C15.6971 17.3219 15.701 17.3013 15.7089 17.2821C15.7168 17.2629 15.7284 17.2455 15.743 17.2308C15.7577 17.2162 15.7751 17.2046 15.7943 17.1967C15.8136 17.1888 15.8341 17.1849 15.8549 17.1851C15.8756 17.1852 15.8961 17.1896 15.9152 17.1977C15.9342 17.2059 15.9515 17.2178 15.9659 17.2328L16.9034 18.1702C16.9252 18.1921 16.9401 18.2199 16.9461 18.2502C16.9521 18.2805 16.949 18.3119 16.9372 18.3405C16.9254 18.369 16.9054 18.3934 16.8797 18.4106C16.854 18.4278 16.8238 18.4369 16.7929 18.4369Z" fill="#2260BD" stroke="#2260BD" stroke-width="0.4"/>
</g>
<defs>
<clipPath id="clip0_2295_206">
<rect width="20" height="20" fill="white" transform="translate(0.972656)"/>
</clipPath>
</defs>
</svg>
