<svg width="29" height="28" viewBox="0 0 29 28" fill="none" xmlns="http://www.w3.org/2000/svg">
<rect x="0.5" width="28" height="28" rx="14" fill="#2260BD" fill-opacity="0.12"/>
<g clip-path="url(#clip0_2295_7755)">
<path d="M22.1553 21.9996H6.90625C6.83716 21.9996 6.78125 21.9436 6.78125 21.8746V20.1247C6.78125 19.0517 7.337 18.6409 8.36244 18.2576C9.44209 17.8543 10.3007 17.4815 10.8453 17.1796C10.8597 17.1715 10.8754 17.1664 10.8917 17.1644C10.908 17.1625 10.9246 17.1638 10.9404 17.1683C10.9562 17.1728 10.9709 17.1804 10.9838 17.1906C10.9966 17.2008 11.0073 17.2135 11.0153 17.2279C11.0488 17.2885 11.027 17.3646 10.9667 17.3978C10.4113 17.7061 9.54097 18.0843 8.44984 18.492C7.48872 18.8508 7.03122 19.1868 7.03122 20.1247V21.7496H22.0303V20.1247C22.0303 19.1868 21.5728 18.8508 20.6117 18.492C19.5019 18.0765 18.655 17.7086 18.0947 17.3981C18.0658 17.382 18.0443 17.3551 18.0352 17.3232C18.026 17.2913 18.0299 17.2572 18.0459 17.2281C18.0539 17.2138 18.0646 17.2011 18.0774 17.1909C18.0903 17.1806 18.105 17.173 18.1208 17.1685C18.1366 17.164 18.1531 17.1626 18.1694 17.1644C18.1857 17.1663 18.2015 17.1714 18.2159 17.1793C18.7654 17.484 19.601 17.847 20.6994 18.2576C21.7247 18.6409 22.2803 19.0518 22.2803 20.1247V21.8746C22.2803 21.891 22.2771 21.9073 22.2708 21.9224C22.2645 21.9376 22.2553 21.9514 22.2437 21.963C22.2321 21.9746 22.2183 21.9838 22.2032 21.9901C22.188 21.9963 22.1717 21.9996 22.1553 21.9996Z" fill="#2260BD"/>
<path d="M14.531 17.4997C12.7951 17.4997 10.0312 15.0398 10.0312 12.125C10.0312 12.0559 10.0872 12 10.1562 12C10.2253 12 10.2812 12.0559 10.2812 12.125C10.2812 14.9043 12.8916 17.2497 14.531 17.2497C16.1706 17.2497 18.7808 14.9043 18.7808 12.125C18.7808 12.0559 18.8367 12 18.9058 12C18.9222 12 18.9384 12.0032 18.9536 12.0095C18.9688 12.0158 18.9825 12.025 18.9941 12.0366C19.0058 12.0482 19.015 12.062 19.0212 12.0772C19.0275 12.0923 19.0307 12.1086 19.0307 12.125C19.0307 15.0398 16.2667 17.4997 14.531 17.4997ZM14.5384 18.4996C14.4694 18.4996 14.4122 18.4437 14.4122 18.3746C14.4122 18.3055 14.4669 18.2496 14.536 18.2496H14.5384C14.6075 18.2496 14.6634 18.3055 14.6634 18.3746C14.6634 18.391 14.6602 18.4073 14.6539 18.4225C14.6476 18.4376 14.6384 18.4514 14.6268 18.463C14.6152 18.4746 14.6014 18.4838 14.5862 18.4901C14.5711 18.4964 14.5548 18.4996 14.5384 18.4996ZM14.5384 19.4995C14.4694 19.4995 14.4122 19.4436 14.4122 19.3746C14.4122 19.3055 14.4669 19.2496 14.536 19.2496H14.5384C14.6075 19.2496 14.6634 19.3055 14.6634 19.3746C14.6634 19.391 14.6602 19.4072 14.6539 19.4224C14.6476 19.4376 14.6384 19.4514 14.6268 19.463C14.6152 19.4746 14.6014 19.4838 14.5862 19.49C14.5711 19.4963 14.5548 19.4995 14.5384 19.4995ZM14.5384 20.4995C14.4694 20.4995 14.4122 20.4436 14.4122 20.3745C14.4122 20.3054 14.4669 20.2495 14.536 20.2495H14.5384C14.6075 20.2495 14.6634 20.3054 14.6634 20.3745C14.6634 20.3909 14.6602 20.4072 14.6539 20.4223C14.6476 20.4375 14.6384 20.4513 14.6268 20.4629C14.6152 20.4745 14.6014 20.4837 14.5862 20.49C14.5711 20.4963 14.5548 20.4995 14.5384 20.4995ZM14.5384 21.4994C14.4694 21.4994 14.4122 21.4435 14.4122 21.3744C14.4122 21.3053 14.4669 21.2494 14.536 21.2494H14.5384C14.6075 21.2494 14.6634 21.3053 14.6634 21.3744C14.6634 21.3909 14.6602 21.4071 14.6539 21.4223C14.6476 21.4374 14.6384 21.4512 14.6268 21.4628C14.6152 21.4744 14.6014 21.4836 14.5862 21.4899C14.5711 21.4962 14.5548 21.4994 14.5384 21.4994Z" fill="#2260BD"/>
<path d="M17.6562 16.9999C17.5872 16.9999 17.5312 16.944 17.5312 16.8749V16.375C17.5312 16.3059 17.5872 16.25 17.6562 16.25C17.7253 16.25 17.7812 16.3059 17.7812 16.375V16.8749C17.7812 16.944 17.7253 16.9999 17.6562 16.9999Z" fill="#2260BD"/>
<path d="M16.4063 18.7496C16.3801 18.7497 16.3547 18.7415 16.3335 18.7262C16.3201 18.7167 16.3088 18.7046 16.3001 18.6907C16.2914 18.6767 16.2856 18.6612 16.2829 18.645C16.2802 18.6288 16.2808 18.6123 16.2845 18.5963C16.2883 18.5803 16.2951 18.5652 16.3047 18.5519L17.5546 16.802C17.574 16.7752 17.6032 16.7571 17.6358 16.7517C17.6685 16.7463 17.702 16.754 17.7289 16.7732C17.7423 16.7827 17.7536 16.7948 17.7623 16.8087C17.771 16.8226 17.7768 16.8382 17.7795 16.8543C17.7822 16.8705 17.7817 16.8871 17.7779 16.9031C17.7742 16.9191 17.7673 16.9342 17.7578 16.9475L16.5078 18.6974C16.4963 18.7136 16.4811 18.7268 16.4634 18.7359C16.4457 18.745 16.4261 18.7497 16.4063 18.7496Z" fill="#2260BD"/>
<path d="M16.4059 18.7498C16.3865 18.7498 16.3674 18.7453 16.35 18.7367L14.8502 17.9867C14.8355 17.9794 14.8224 17.9692 14.8116 17.9568C14.8008 17.9444 14.7926 17.93 14.7874 17.9144C14.7822 17.8988 14.7802 17.8824 14.7813 17.866C14.7825 17.8496 14.7869 17.8337 14.7943 17.819C14.8091 17.7893 14.8351 17.7668 14.8665 17.7563C14.898 17.7459 14.9323 17.7483 14.9619 17.7631L16.4618 18.513C16.4807 18.513 16.4993 18.5173 16.5163 18.5255C16.5333 18.5337 16.5481 18.5457 16.5598 18.5605C16.5715 18.5753 16.5797 18.5925 16.5838 18.6109C16.5879 18.6293 16.5878 18.6484 16.5835 18.6668C16.5791 18.6851 16.5707 18.7022 16.5588 18.7169C16.5469 18.7315 16.5319 18.7433 16.5148 18.7512C16.4977 18.7592 16.4791 18.7633 16.4602 18.763C16.4414 18.7628 16.4228 18.7583 16.4059 18.7498ZM11.4063 16.9999C11.3372 16.9999 11.2813 16.944 11.2813 16.8749V16.375C11.2812 16.3586 11.2845 16.3423 11.2907 16.3271C11.297 16.312 11.3062 16.2982 11.3178 16.2866C11.3295 16.275 11.3432 16.2658 11.3584 16.2595C11.3736 16.2532 11.3898 16.25 11.4063 16.25C11.4753 16.25 11.5313 16.3059 11.5313 16.375V16.8749C11.5313 16.944 11.4753 16.9999 11.4063 16.9999Z" fill="#2260BD"/>
<path d="M12.6563 18.7499C12.6364 18.75 12.6167 18.7452 12.599 18.7362C12.5813 18.7271 12.566 18.7139 12.5545 18.6976L11.3045 16.9477C11.295 16.9344 11.2882 16.9193 11.2845 16.9033C11.2808 16.8873 11.2803 16.8707 11.283 16.8546C11.2856 16.8384 11.2915 16.8229 11.3002 16.809C11.3089 16.795 11.3202 16.783 11.3336 16.7734C11.3469 16.7639 11.362 16.757 11.378 16.7533C11.394 16.7495 11.4105 16.749 11.4267 16.7517C11.4429 16.7543 11.4584 16.7602 11.4724 16.7689C11.4863 16.7775 11.4984 16.7889 11.5079 16.8022L12.7579 18.5521C12.7674 18.5655 12.7742 18.5806 12.7779 18.5966C12.7816 18.6126 12.7821 18.6291 12.7794 18.6453C12.7768 18.6615 12.7709 18.677 12.7622 18.6909C12.7535 18.7048 12.7422 18.7169 12.7288 18.7265C12.7077 18.7417 12.6823 18.7499 12.6563 18.7499Z" fill="#2260BD"/>
<path d="M12.6564 18.7497C12.6332 18.7497 12.6104 18.7432 12.5906 18.731C12.5708 18.7188 12.5549 18.7014 12.5444 18.6806C12.5371 18.6659 12.5327 18.6499 12.5315 18.6336C12.5304 18.6172 12.5324 18.6007 12.5376 18.5852C12.5428 18.5696 12.551 18.5552 12.5618 18.5428C12.5726 18.5304 12.5857 18.5202 12.6004 18.5129L14.1003 17.7629C14.1299 17.7481 14.1642 17.7457 14.1957 17.7562C14.2271 17.7667 14.2531 17.7892 14.268 17.8188C14.2753 17.8335 14.2797 17.8495 14.2809 17.8659C14.2821 17.8823 14.28 17.8987 14.2748 17.9143C14.2696 17.9299 14.2614 17.9443 14.2506 17.9567C14.2399 17.9691 14.2268 17.9792 14.2121 17.9866L12.7122 18.7365C12.6948 18.7451 12.6757 18.7496 12.6564 18.7497ZM10.1564 11.7501C10.1253 11.7501 10.0953 11.7385 10.0722 11.7175C10.0492 11.6965 10.0348 11.6677 10.0319 11.6367C9.87504 9.96186 10.2339 8.63139 11.0985 7.68211C12.3643 6.29221 14.4403 6.00049 15.9593 6.00049C16.8464 6.00049 17.5053 6.10289 17.5776 6.11461C17.6044 6.11898 17.6291 6.132 17.6479 6.15168C17.6667 6.17137 17.6786 6.19665 17.6817 6.22368C17.6848 6.25072 17.679 6.27804 17.6652 6.30149C17.6514 6.32494 17.6303 6.34324 17.6052 6.35361C16.7112 6.72152 16.8562 7.61136 16.9309 7.90136C16.9598 7.90008 16.9888 7.89944 17.0178 7.89943C17.373 7.89943 18.0429 7.98599 18.5389 8.56543C19.0836 9.20161 19.2486 10.2376 19.0294 11.6445C19.0254 11.6698 19.0138 11.6932 18.9961 11.7117C18.9783 11.7302 18.9554 11.7427 18.9303 11.7477C18.8785 11.7587 18.8268 11.7349 18.7992 11.6904L17.756 9.98464C17.3605 10.1378 15.8797 10.6728 14.4955 10.6728C13.1154 10.6728 11.6528 10.1408 11.2562 9.98586L10.2644 11.6881C10.2534 11.7069 10.2377 11.7226 10.2187 11.7335C10.1998 11.7444 10.1783 11.7501 10.1564 11.7501ZM17.8076 9.70458C17.8498 9.70458 17.8908 9.72618 17.9142 9.76439L18.8292 11.2603C18.9613 10.1058 18.8002 9.25489 18.3493 8.72796C17.9181 8.22458 17.33 8.14939 17.0178 8.14939C16.9209 8.14939 16.8606 8.15708 16.8567 8.15771C16.7981 8.16514 16.741 8.13099 16.7215 8.07483C16.7171 8.06214 16.3357 6.92608 17.1658 6.31358C16.8824 6.28346 16.4583 6.25049 15.9593 6.25049C14.4908 6.25049 12.4876 6.52805 11.2834 7.85049C10.5377 8.66918 10.1919 9.79839 10.2531 11.2109L11.0945 9.76677C11.1098 9.74057 11.134 9.72081 11.1628 9.71115C11.1915 9.7015 11.2228 9.70261 11.2508 9.71427C11.2677 9.72136 12.9659 10.4228 14.4955 10.4228C16.0257 10.4228 17.7427 9.72121 17.76 9.71414C17.7751 9.70781 17.7912 9.70456 17.8076 9.70458ZM14.9061 21.9995C14.8897 21.9995 14.8734 21.9963 14.8583 21.99C14.8431 21.9837 14.8293 21.9745 14.8177 21.9629C14.8061 21.9513 14.7969 21.9375 14.7906 21.9223C14.7843 21.9072 14.7811 21.8909 14.7811 21.8745V18.3747C14.7811 18.3056 14.837 18.2497 14.9061 18.2497C14.9752 18.2497 15.0311 18.3056 15.0311 18.3747V21.8745C15.0311 21.9436 14.9752 21.9995 14.9061 21.9995ZM14.1562 21.9995C14.0871 21.9995 14.0312 21.9436 14.0312 21.8745V18.3747C14.0312 18.3056 14.0871 18.2497 14.1562 18.2497C14.2253 18.2497 14.2812 18.3056 14.2812 18.3747V21.8745C14.2812 21.8909 14.2779 21.9072 14.2717 21.9223C14.2654 21.9375 14.2562 21.9513 14.2446 21.9629C14.233 21.9745 14.2192 21.9837 14.204 21.99C14.1888 21.9963 14.1726 21.9995 14.1562 21.9995ZM19.4058 20.9996H16.906C16.8369 20.9996 16.781 20.9436 16.781 20.8746C16.781 20.8055 16.8369 20.7496 16.906 20.7496H19.4058C19.4749 20.7496 19.5308 20.8055 19.5308 20.8746C19.5308 20.9436 19.4749 20.9996 19.4058 20.9996Z" fill="#2260BD"/>
<path d="M16.9062 21.4994C16.8898 21.4995 16.8736 21.4962 16.8584 21.49C16.8432 21.4837 16.8294 21.4745 16.8178 21.4629C16.8062 21.4513 16.797 21.4375 16.7907 21.4223C16.7845 21.4071 16.7812 21.3909 16.7813 21.3745V20.8745C16.7812 20.8581 16.7845 20.8418 16.7907 20.8266C16.797 20.8115 16.8062 20.7977 16.8178 20.7861C16.8294 20.7745 16.8432 20.7653 16.8584 20.759C16.8736 20.7527 16.8898 20.7495 16.9062 20.7495C16.9753 20.7495 17.0312 20.8054 17.0312 20.8745V21.3745C17.0312 21.3909 17.028 21.4072 17.0217 21.4223C17.0154 21.4375 17.0062 21.4513 16.9946 21.4629C16.983 21.4745 16.9692 21.4837 16.9541 21.49C16.9389 21.4962 16.9226 21.4995 16.9062 21.4994Z" fill="#2260BD"/>
<path d="M19.4062 21.4994C19.3898 21.4995 19.3736 21.4962 19.3584 21.49C19.3432 21.4837 19.3294 21.4745 19.3178 21.4629C19.3062 21.4513 19.297 21.4375 19.2907 21.4223C19.2845 21.4071 19.2812 21.3909 19.2813 21.3745V20.8745C19.2813 20.8054 19.3371 20.7495 19.4062 20.7495C19.4753 20.7495 19.5312 20.8054 19.5312 20.8745V21.3745C19.5312 21.3909 19.528 21.4072 19.5217 21.4223C19.5154 21.4375 19.5062 21.4513 19.4946 21.4629C19.483 21.4745 19.4692 21.4837 19.4541 21.49C19.4389 21.4962 19.4226 21.4995 19.4062 21.4994Z" fill="#2260BD"/>
<path d="M17.1562 20.7495C17.1315 20.7495 17.1073 20.7422 17.0868 20.7284C17.0662 20.7147 17.0502 20.6952 17.0408 20.6723C17.0313 20.6495 17.0288 20.6244 17.0337 20.6001C17.0385 20.5759 17.0504 20.5536 17.0678 20.5361L17.8178 19.7862C17.8414 19.7636 17.8729 19.7511 17.9056 19.7515C17.9383 19.7518 17.9695 19.765 17.9926 19.7881C18.0157 19.8112 18.0289 19.8424 18.0292 19.8751C18.0296 19.9078 18.0171 19.9393 17.9945 19.9629L17.2446 20.7129C17.233 20.7245 17.2192 20.7337 17.2041 20.74C17.1889 20.7463 17.1726 20.7495 17.1562 20.7495Z" fill="#2260BD"/>
<path d="M18.6562 20.7495C18.6398 20.7495 18.6235 20.7463 18.6084 20.74C18.5932 20.7337 18.5794 20.7245 18.5678 20.7129L17.8179 19.9629C17.7953 19.9393 17.7829 19.9078 17.7832 19.8751C17.7836 19.8424 17.7967 19.8112 17.8198 19.7881C17.8429 19.765 17.8741 19.7518 17.9068 19.7515C17.9395 19.7511 17.971 19.7636 17.9946 19.7862L18.7446 20.5361C18.7621 20.5536 18.774 20.5759 18.7788 20.6001C18.7836 20.6244 18.7811 20.6495 18.7717 20.6723C18.7622 20.6952 18.7462 20.7147 18.7257 20.7284C18.7051 20.7422 18.6809 20.7495 18.6562 20.7495Z" fill="#2260BD"/>
<path d="M19.1558 20.7496C19.1394 20.7496 19.1231 20.7463 19.108 20.7401C19.0928 20.7338 19.079 20.7246 19.0674 20.7129L18.3175 19.963C18.3055 19.9514 18.296 19.9376 18.2894 19.9224C18.2829 19.9071 18.2794 19.8907 18.2793 19.8741C18.2792 19.8575 18.2823 19.8411 18.2886 19.8257C18.2949 19.8104 18.3042 19.7964 18.3159 19.7847C18.3276 19.7729 18.3416 19.7636 18.357 19.7574C18.3723 19.7511 18.3888 19.7479 18.4054 19.7481C18.422 19.7482 18.4384 19.7516 18.4536 19.7582C18.4689 19.7647 18.4827 19.7743 18.4942 19.7862L19.2442 20.5362C19.2617 20.5537 19.2736 20.5759 19.2784 20.6002C19.2832 20.6244 19.2807 20.6495 19.2713 20.6724C19.2618 20.6952 19.2458 20.7147 19.2252 20.7285C19.2047 20.7422 19.1805 20.7495 19.1558 20.7496Z" fill="#2260BD"/>
</g>
<defs>
<clipPath id="clip0_2295_7755">
<rect width="16" height="16" fill="white" transform="translate(6.5 6)"/>
</clipPath>
</defs>
</svg>
