<svg width="20" height="13" viewBox="0 0 20 13" fill="none" xmlns="http://www.w3.org/2000/svg">
<path d="M9.94745 0C8.22505 0 6.82878 1.54495 6.82878 3.45074C6.82878 4.77247 7.50038 5.92039 8.48658 6.5L7.34297 7.00231L4.29965 8.33999C4.00565 8.47932 3.85892 8.71557 3.85892 9.04995V12.2264C3.8831 12.6236 4.13453 12.9937 4.54218 13H15.3692C15.8346 12.9616 16.07 12.6064 16.0746 12.2264V9.04995C16.0746 8.71557 15.9279 8.47932 15.6339 8.33999L12.7008 7.00231L11.4818 6.455C12.4275 5.86234 13.0661 4.73924 13.0661 3.45076C13.0661 1.54495 11.6698 0 9.94745 0ZM4.91705 1.21347C4.17583 1.24014 3.5884 1.54411 3.1421 2.02845C2.64843 2.61158 2.40777 3.30393 2.40312 3.99267C2.43343 5.01112 2.91427 5.97528 3.77027 6.47959L0.352717 7.98472C0.1175 8.06831 0 8.26334 0 8.56985V11.1192C0.0183667 11.4573 0.2036 11.7415 0.550917 11.7463H2.82232V9.04995C2.8599 8.32906 3.2171 7.74637 3.85892 7.46202L6.1297 6.43821C6.3061 6.34067 6.47522 6.2081 6.63692 6.04092C5.70065 4.67184 5.57063 3.03204 6.17403 1.58976C5.78158 1.36213 5.34053 1.21585 4.91705 1.21347ZM15.0602 1.21347C14.5754 1.22309 14.1275 1.39225 13.7595 1.63116C14.3465 3.0865 14.1846 4.72731 13.3181 5.99891C13.5093 6.20788 13.7082 6.36816 13.914 6.47962L16.0968 7.46202C16.7617 7.80764 17.1046 8.3955 17.1112 9.04996V11.7464H19.4485C19.8328 11.7149 19.9967 11.4243 20 11.1192V8.56986C20 8.29121 19.8825 8.0962 19.6473 7.98472L16.2734 6.4586C17.1484 5.84719 17.5878 4.93087 17.5963 3.99267C17.573 3.25009 17.3336 2.56059 16.8573 2.02845C16.3595 1.51669 15.7421 1.21888 15.0602 1.21347Z" fill="black"/>
</svg>
