<svg width="19" height="19" viewBox="0 0 19 19" fill="none" xmlns="http://www.w3.org/2000/svg">
<path d="M14.166 1.49993C14.3849 1.28106 14.6447 1.10744 14.9307 0.988988C15.2167 0.870536 15.5232 0.80957 15.8327 0.80957C16.1422 0.80957 16.4487 0.870536 16.7347 0.988988C17.0206 1.10744 17.2805 1.28106 17.4993 1.49993C17.7182 1.7188 17.8918 1.97863 18.0103 2.2646C18.1287 2.55057 18.1897 2.85706 18.1897 3.16659C18.1897 3.47612 18.1287 3.78262 18.0103 4.06859C17.8918 4.35455 17.7182 4.61439 17.4993 4.83326L6.24935 16.0833L1.66602 17.3333L2.91602 12.7499L14.166 1.49993Z" stroke="#AA2F4C" stroke-width="1.5" stroke-linecap="round" stroke-linejoin="round"/>
</svg>
