<svg width="20" height="16" viewBox="0 0 20 16" fill="none" xmlns="http://www.w3.org/2000/svg">
<path fill-rule="evenodd" clip-rule="evenodd" d="M10 0C8.15907 0 6.66667 1.49239 6.66667 3.33333C6.66667 4.03672 6.88453 4.68923 7.25647 5.22705L4.23523 9.4568C3.94837 9.3764 3.64588 9.33333 3.33333 9.33333C1.49239 9.33333 0 10.8257 0 12.6667C0 14.5076 1.49239 16 3.33333 16C5.17428 16 6.66667 14.5076 6.66667 12.6667C6.66667 11.6208 6.18496 10.6873 5.43131 10.0763L8.22987 6.15827C8.7428 6.4804 9.3496 6.66667 10 6.66667C10.6503 6.66667 11.2571 6.4804 11.77 6.1584L14.5685 10.0764C13.8149 10.6875 13.3333 11.6208 13.3333 12.6667C13.3333 14.5076 14.8257 16 16.6667 16C18.5076 16 20 14.5076 20 12.6667C20 10.8257 18.5076 9.33333 16.6667 9.33333C16.354 9.33333 16.0515 9.3764 15.7645 9.4568L12.7433 5.22727C13.1155 4.68941 13.3333 4.03681 13.3333 3.33333C13.3333 1.49239 11.8409 0 10 0ZM8 3.33333C8 2.22876 8.89547 1.33333 10 1.33333C11.1045 1.33333 12 2.22876 12 3.33333C12 4.43791 11.1045 5.33333 10 5.33333C8.89547 5.33333 8 4.43791 8 3.33333ZM1.33333 12.6667C1.33333 11.5621 2.22876 10.6667 3.33333 10.6667C4.43791 10.6667 5.33333 11.5621 5.33333 12.6667C5.33333 13.7712 4.43791 14.6667 3.33333 14.6667C2.22876 14.6667 1.33333 13.7712 1.33333 12.6667ZM16.6667 10.6667C15.5621 10.6667 14.6667 11.5621 14.6667 12.6667C14.6667 13.7712 15.5621 14.6667 16.6667 14.6667C17.7712 14.6667 18.6667 13.7712 18.6667 12.6667C18.6667 11.5621 17.7712 10.6667 16.6667 10.6667Z" fill="#373737"/>
</svg>
