<svg width="34" height="33" viewBox="0 0 34 33" fill="none" xmlns="http://www.w3.org/2000/svg">
<path d="M16.202 1.05662C16.6021 0.526844 17.3979 0.526843 17.798 1.05662L23.4819 8.58271C23.6016 8.74114 23.7657 8.86037 23.9533 8.92521L32.8675 12.0053C33.495 12.2221 33.7409 12.9789 33.3607 13.5231L27.9594 21.2546C27.8457 21.4173 27.783 21.6103 27.7793 21.8088L27.6047 31.2384C27.5924 31.9022 26.9486 32.37 26.3135 32.1765L17.2913 29.4287C17.1014 29.3709 16.8986 29.3709 16.7087 29.4287L7.68652 32.1765C7.05144 32.37 6.40764 31.9022 6.39534 31.2384L6.22066 21.8088C6.21698 21.6103 6.1543 21.4173 6.0406 21.2546L0.639295 13.5231C0.259087 12.9789 0.504995 12.2221 1.13248 12.0053L10.0467 8.92521C10.2343 8.86037 10.3984 8.74114 10.5181 8.58271L16.202 1.05662Z" fill="#D9D9D9"/>
</svg>
