<svg width="20" height="20" viewBox="0 0 20 20" fill="none" xmlns="http://www.w3.org/2000/svg">
<path d="M6.64633 2.39637C6.60299 2.26282 6.49516 2.16002 6.35967 2.12297L4.65251 1.65658L3.68165 0.176193C3.52784 -0.058731 3.13884 -0.058731 2.98503 0.176193L2.01437 1.65658L0.307012 2.12297C0.171514 2.16002 0.0636851 2.26282 0.0203501 2.39637C-0.0229848 2.53012 0.00387065 2.67649 0.0915578 2.78601L1.19894 4.16746L1.11451 5.93611C1.10779 6.07657 1.17229 6.21073 1.28581 6.29338C1.35804 6.3459 1.4441 6.37298 1.53077 6.37298C1.58041 6.37298 1.63046 6.36402 1.67827 6.3459L3.33334 5.7191L4.98861 6.3459C5.11984 6.39578 5.26754 6.37603 5.38107 6.29338C5.49459 6.21073 5.55909 6.07657 5.55237 5.93611L5.46794 4.16746L6.57512 2.78601C6.66281 2.67649 6.68966 2.52991 6.64633 2.39637ZM4.71904 3.76886C4.65556 3.84805 4.62322 3.94801 4.62789 4.04959L4.68954 5.34127L3.48084 4.88343C3.43323 4.86531 3.38339 4.85635 3.33334 4.85635C3.28329 4.85635 3.23344 4.86531 3.18584 4.88343L1.97734 5.34106L2.03899 4.04959C2.04387 3.94801 2.01132 3.84805 1.94784 3.76886L1.13912 2.76015L2.38587 2.41958C2.48393 2.3927 2.56877 2.33102 2.62452 2.24593L3.33334 1.16495L4.04236 2.24593C4.09811 2.33102 4.18295 2.3927 4.28101 2.41958L5.52755 2.76015L4.71904 3.76886Z" fill="#373737"/>
<path d="M15.4154 2.07227H8.33203V2.9061H15.4154V2.07227Z" fill="#373737"/>
<path d="M19.9987 4.15674H8.33203V4.99058H19.9987V4.15674Z" fill="#373737"/>
<path d="M6.64633 9.21013C6.60279 9.07658 6.49516 8.97378 6.35967 8.93673L4.65251 8.47055L3.68165 6.99016C3.52784 6.75523 3.13884 6.75523 2.98503 6.99016L2.01437 8.47055L0.307012 8.93673C0.171514 8.97378 0.0638886 9.07658 0.0203501 9.21013C-0.0229848 9.34367 0.00387065 9.49025 0.0915578 9.59977L1.19894 10.9812L1.11451 12.7499C1.10779 12.8903 1.17229 13.0245 1.28581 13.1071C1.39913 13.1894 1.54684 13.2091 1.67827 13.1597L3.33334 12.5329L4.98861 13.1597C5.03642 13.1778 5.08647 13.1867 5.13611 13.1867C5.22278 13.1867 5.30884 13.1597 5.38107 13.1071C5.49459 13.0245 5.55909 12.8903 5.55237 12.7499L5.46794 10.9812L6.57512 9.59977C6.66281 9.49025 6.68966 9.34367 6.64633 9.21013ZM4.71904 10.5826C4.65556 10.6618 4.62322 10.7618 4.62789 10.8634L4.68954 12.155L3.48084 11.6972C3.43323 11.6791 3.38339 11.6701 3.33334 11.6701C3.28329 11.6701 3.23344 11.6791 3.18584 11.6972L1.97734 12.1548L2.03899 10.8634C2.04387 10.7618 2.01132 10.6618 1.94784 10.5826L1.13912 9.57392L2.38587 9.23354C2.48393 9.20667 2.56877 9.14499 2.62452 9.05989L3.33334 7.97892L4.04236 9.05989C4.09811 9.14499 4.18295 9.20667 4.28101 9.23354L5.52755 9.57392L4.71904 10.5826Z" fill="#373737"/>
<path d="M15.4154 8.74316H8.33203V9.577H15.4154V8.74316Z" fill="#373737"/>
<path d="M19.9987 10.8276H8.33203V11.6615H19.9987V10.8276Z" fill="#373737"/>
<path d="M6.64633 16.0233C6.60279 15.8898 6.49516 15.787 6.35967 15.7499L4.65251 15.2837L3.68165 13.8031C3.52784 13.5682 3.13884 13.5682 2.98503 13.8031L2.01437 15.2837L0.307012 15.7499C0.171514 15.787 0.0638886 15.8898 0.0203501 16.0233C-0.0229848 16.1569 0.00387065 16.3034 0.0915578 16.413L1.19894 17.7944L1.11451 19.5631C1.10779 19.7035 1.17229 19.8377 1.28581 19.9203C1.39913 20.003 1.54684 20.0223 1.67827 19.9729L3.33334 19.3461L4.98861 19.9729C5.03642 19.991 5.08647 19.9999 5.13611 19.9999C5.22278 19.9999 5.30884 19.9729 5.38107 19.9203C5.49459 19.8377 5.55909 19.7035 5.55237 19.5631L5.46794 17.7944L6.57512 16.413C6.66281 16.3034 6.68966 16.1569 6.64633 16.0233ZM4.71904 17.3958C4.65556 17.475 4.62322 17.575 4.62789 17.6765L4.68954 18.9682L3.48084 18.5104C3.43323 18.4923 3.38339 18.4833 3.33334 18.4833C3.28329 18.4833 3.23344 18.4923 3.18584 18.5104L1.97734 18.968L2.03899 17.6765C2.04387 17.575 2.01132 17.475 1.94784 17.3958L1.13912 16.3871L2.38587 16.0467C2.48393 16.0199 2.56877 15.9582 2.62452 15.8731L3.33334 14.7919L4.04236 15.8731C4.09811 15.9582 4.18295 16.0199 4.28101 16.0467L5.52755 16.3871L4.71904 17.3958Z" fill="#373737"/>
<path d="M15.4154 15.8311H8.33203V16.6649H15.4154V15.8311Z" fill="#373737"/>
<path d="M19.9987 17.915H8.33203V18.7489H19.9987V17.915Z" fill="#373737"/>
</svg>
