<svg width="19" height="20" viewBox="0 0 19 20" fill="none" xmlns="http://www.w3.org/2000/svg">
<path d="M11.4852 15.0264C11.4456 14.9327 11.4574 14.7782 11.4772 14.6591C11.6134 13.8484 11.8668 13.243 12.1619 12.7898C11.598 12.1477 10.9803 12.0523 10.9502 12.0483L10.8337 12.0347C10.6289 12.5686 10.3134 13.2861 10.0813 13.943C10.013 14.1359 9.91916 14.3334 9.80816 14.4121C9.69715 14.4908 9.44136 14.5371 9.22504 14.6007C8.21454 14.898 7.4761 15.8386 7.47656 16.9533C7.47656 18.3062 8.56467 19.4036 9.9068 19.4036C11.2488 19.4036 12.3369 18.3069 12.3369 16.9536C12.3372 16.284 12.0707 15.6781 11.6389 15.2353C11.5661 15.1612 11.5251 15.1196 11.4852 15.0264ZM9.90684 18.2779C9.18134 18.2779 8.59311 17.6847 8.59311 16.9532C8.59311 16.2221 9.18134 15.6288 9.90684 15.6288C10.6326 15.6285 11.2207 16.2215 11.2204 16.9532C11.2204 17.6847 10.6321 18.2779 9.90684 18.2779Z" fill="#373737"/>
<path d="M17.0999 18.4269C17.4065 18.0165 17.5882 17.5066 17.5887 16.9533C17.5884 15.8386 16.85 14.898 15.8394 14.6007C15.6233 14.5371 15.3677 14.4908 15.2564 14.4121C15.1457 14.3332 15.0519 14.1363 14.9836 13.943C14.6488 12.9961 14.1399 11.9202 14.0415 11.4568C14.0415 11.4568 13.3848 2.64875 13.2531 1.52277C13.1218 0.39711 12.925 6.46377e-07 12.5305 6.46377e-07C12.1366 -0.000585291 11.9393 0.39711 11.8079 1.52277C11.6771 2.64875 11.0195 11.4568 11.0195 11.4568C11.0195 11.4568 13.0888 11.6882 13.5874 14.6591C13.6074 14.7783 13.6189 14.933 13.579 15.0264C13.5397 15.1199 13.4984 15.1612 13.4256 15.2359C12.9944 15.6778 12.7276 16.284 12.7276 16.9533C12.7279 18.3069 13.8157 19.4036 15.158 19.4036C15.617 19.4036 16.0465 19.2752 16.4131 19.0519C17.2444 19.8074 17.9384 20 17.9384 20L18.3326 19.2712C17.7341 19.0904 17.1919 18.5267 17.0999 18.4269ZM12.5305 11.0595C12.2766 11.0595 12.0709 10.8518 12.0709 10.5958C12.0709 10.3398 12.2769 10.1322 12.5305 10.1325C12.7844 10.1325 12.9901 10.3398 12.9901 10.5958C12.9907 10.8515 12.7844 11.0595 12.5305 11.0595ZM15.158 18.2779C14.4325 18.2779 13.8441 17.6847 13.8444 16.9536C13.8447 16.2216 14.4325 15.6289 15.1577 15.6289C15.8835 15.6286 16.4719 16.2215 16.4716 16.9536C16.4716 17.685 15.8838 18.2777 15.158 18.2779Z" fill="#373737"/>
<path d="M4.94746 0.176758H0.51926C0.232973 0.176758 0 0.411602 0 0.700234V1.74379C0 1.98613 0.195623 2.1834 0.436036 2.1834H3.60971C4.0218 2.1834 4.35718 2.5218 4.35718 2.9377C4.35718 3.35305 4.0218 3.69086 3.60971 3.69086H0.436074C0.195662 3.69086 3.87976e-05 3.88813 3.87976e-05 4.13047V4.59266C3.87976e-05 4.83504 0.195662 5.0323 0.436074 5.0323H3.60975C4.02184 5.0323 4.35722 5.37039 4.35722 5.78602C4.35722 6.20164 4.02184 6.53973 3.60975 6.53973H0.436074C0.195662 6.53973 3.87976e-05 6.73699 3.87976e-05 6.97937V7.44215C3.87976e-05 7.68453 0.195662 7.88176 0.436074 7.88176H3.60975C4.02184 7.88176 4.35722 8.21988 4.35722 8.63547C4.35722 9.05078 4.02184 9.38863 3.60975 9.38863H0.436074C0.195662 9.38863 3.87976e-05 9.5859 3.87976e-05 9.82824V10.291C3.87976e-05 10.5334 0.195662 10.7307 0.436074 10.7307H3.60975C4.02184 10.7307 4.35722 11.0685 4.35722 11.4838C4.35722 11.8994 4.02184 12.2375 3.60975 12.2375H0.436074C0.195662 12.2375 3.87976e-05 12.4348 3.87976e-05 12.6771V13.1399C3.87976e-05 13.3823 0.195662 13.5795 0.436074 13.5795H3.60975C4.02184 13.5795 4.35722 13.9177 4.35722 14.3332C4.35722 14.7486 4.02184 15.0864 3.60975 15.0864H0.436074C0.195662 15.0864 3.87976e-05 15.2837 3.87976e-05 15.526V15.9888C3.87976e-05 16.2312 0.195662 16.4284 0.436074 16.4284H3.60975C4.02184 16.4284 4.35722 16.7662 4.35722 17.1816C4.35722 17.5972 4.02184 17.9353 3.60975 17.9353H0.436074C0.195662 17.9353 3.87976e-05 18.1325 3.87976e-05 18.3749V19.2993C3.87976e-05 19.588 0.232973 19.8228 0.519298 19.8228H4.94746C5.69306 19.8228 6.29954 19.2111 6.29954 18.4594V1.54016C6.29954 0.788437 5.69306 0.176758 4.94746 0.176758Z" fill="#373737"/>
</svg>
