<svg width="54" height="69" viewBox="0 0 54 69" fill="none" xmlns="http://www.w3.org/2000/svg">
<g filter="url(#filter0_d_1739_15013)">
<path fill-rule="evenodd" clip-rule="evenodd" d="M27 11C20.3726 11 15 16.3726 15 23C15 25.2337 15.6103 27.3248 16.6732 29.1157L27 49L37.2168 29.2974C38.3475 27.4668 39 25.3096 39 23C39 16.3726 33.6274 11 27 11Z" fill="#AA2F4C"/>
<path d="M16.6732 29.1157L17.1169 28.8853L17.1104 28.8727L17.1032 28.8605L16.6732 29.1157ZM27 49L26.5563 49.2304L27.0003 50.0855L27.4439 49.2302L27 49ZM37.2168 29.2974L36.7914 29.0346L36.7816 29.0505L36.773 29.0672L37.2168 29.2974ZM15.5 23C15.5 16.6487 20.6487 11.5 27 11.5V10.5C20.0964 10.5 14.5 16.0964 14.5 23H15.5ZM17.1032 28.8605C16.0848 27.1447 15.5 25.1414 15.5 23H14.5C14.5 25.3259 15.1357 27.5049 16.2432 29.3709L17.1032 28.8605ZM16.2295 29.3462L26.5563 49.2304L27.4437 48.7696L17.1169 28.8853L16.2295 29.3462ZM27.4439 49.2302L37.6607 29.5275L36.773 29.0672L26.5561 48.7698L27.4439 49.2302ZM38.5 23C38.5 25.2142 37.8748 27.2807 36.7914 29.0346L37.6422 29.5601C38.8203 27.6529 39.5 25.4051 39.5 23H38.5ZM27 11.5C33.3513 11.5 38.5 16.6487 38.5 23H39.5C39.5 16.0964 33.9036 10.5 27 10.5V11.5Z" fill="#AA2F4C"/>
<path d="M29.2763 17.4862C28.1128 17.4864 27.1693 18.4295 27.1693 19.5932C27.1695 20.1689 27.4005 20.6902 27.7745 21.0702C27.8377 21.1345 27.8733 21.1699 27.9078 21.2502C27.9421 21.3307 27.932 21.4634 27.9149 21.5659C27.7969 22.2626 27.5774 22.7833 27.3208 23.1734C27.8102 23.7257 28.3457 23.8075 28.3718 23.8111L28.4729 23.8225C28.6502 23.3637 28.9238 22.7462 29.1251 22.1817C29.1842 22.0155 29.2656 21.8462 29.3616 21.7787C29.4579 21.711 29.6797 21.6709 29.8673 21.6163C30.7431 21.3607 31.3833 20.5518 31.3833 19.5932C31.3833 18.4295 30.4401 17.4864 29.2763 17.4862ZM30.4152 19.5932C30.4155 20.2224 29.9055 20.7324 29.2763 20.7321C28.6473 20.7322 28.1373 20.2222 28.1374 19.5932C28.1374 18.9644 28.6474 18.4543 29.2764 18.4545C29.9052 18.4543 30.4152 18.9644 30.4152 19.5932Z" fill="white"/>
<path d="M26.0839 21.5626C26.0664 21.4604 26.0566 21.3276 26.0908 21.247C26.1251 21.1665 26.1608 21.1312 26.2239 21.0669C26.5982 20.6868 26.829 20.1655 26.8292 19.5899C26.8291 18.4262 25.886 17.483 24.7223 17.483C23.5585 17.4829 22.6152 18.4262 22.6155 19.5899C22.6155 20.5485 23.2555 21.3575 24.1314 21.6129C24.3189 21.6675 24.5407 21.7076 24.6369 21.7752C24.7331 21.8428 24.8142 22.0122 24.8735 22.1782C25.164 22.9926 25.6049 23.9175 25.6903 24.3162C25.6903 24.3162 26.2597 31.8897 26.3737 32.8578C26.4876 33.8259 26.6584 34.1674 26.9999 34.1674C27.3416 34.1676 27.5127 33.8257 27.6265 32.8578C27.7403 31.8899 28.3096 24.3162 28.3096 24.3162C28.3096 24.3162 26.5159 24.1171 26.0839 21.5626ZM23.5834 19.5901C23.5833 18.961 24.0933 18.451 24.7223 18.4512C25.3512 18.4512 25.8611 18.961 25.8611 19.5899C25.8613 20.2191 25.3513 20.7291 24.7223 20.7289C24.0933 20.7288 23.5834 20.2189 23.5834 19.5901ZM27.3986 25.0564C27.3986 25.2768 27.2202 25.4552 27 25.4551C26.7797 25.455 26.6014 25.2767 26.6013 25.0564C26.6014 24.8365 26.7798 24.658 26.9999 24.6577C27.2202 24.6579 27.3983 24.8363 27.3986 25.0564Z" fill="white"/>
</g>
<defs>
<filter id="filter0_d_1739_15013" x="0.5" y="0.5" width="53" height="67.5854" filterUnits="userSpaceOnUse" color-interpolation-filters="sRGB">
<feFlood flood-opacity="0" result="BackgroundImageFix"/>
<feColorMatrix in="SourceAlpha" type="matrix" values="0 0 0 0 0 0 0 0 0 0 0 0 0 0 0 0 0 0 127 0" result="hardAlpha"/>
<feOffset dy="4"/>
<feGaussianBlur stdDeviation="7"/>
<feComposite in2="hardAlpha" operator="out"/>
<feColorMatrix type="matrix" values="0 0 0 0 0 0 0 0 0 0 0 0 0 0 0 0 0 0 0.14 0"/>
<feBlend mode="normal" in2="BackgroundImageFix" result="effect1_dropShadow_1739_15013"/>
<feBlend mode="normal" in="SourceGraphic" in2="effect1_dropShadow_1739_15013" result="shape"/>
</filter>
</defs>
</svg>
