<svg width="26" height="28" viewBox="0 0 26 28" fill="none" xmlns="http://www.w3.org/2000/svg">
<path d="M4.8405 0C4.5745 0 4.3015 0.01575 4.01975 0.055125C3.90527 0.072896 3.80188 0.133666 3.73066 0.225044C3.65945 0.316421 3.62577 0.431522 3.6365 0.546875L4.78537 8.75H1.3125C0.9975 8.75 0.690375 8.855 0.4375 9.07812C0.1855 9.30125 0 9.66 0 10.0625C0 10.465 0.1855 10.7957 0.4375 11.0197C0.690375 11.2429 0.9975 11.375 1.3125 11.375H5.14062C5.19838 11.795 5.26575 12.2246 5.33225 12.7146L5.6875 15.3125V18.8125C5.6875 19.0417 5.89575 19.25 6.125 19.25H7.4375V22.3125C7.4375 22.5417 7.64575 22.75 7.875 22.75H10.9375V25.375H9.1875C7.861 25.375 7.11637 25.7311 6.78125 26.2771C6.447 26.824 6.125 27.4479 6.125 27.5625C6.125 27.7917 6.33325 28 6.5625 28H17.0625C17.1771 27.9957 17.2859 27.9482 17.3671 27.8671C17.4482 27.7859 17.4957 27.6771 17.5 27.5625C17.5 27.419 17.1334 26.8319 16.7895 26.3043C16.4447 25.7775 15.7203 25.4074 14.4375 25.375H12.6875V22.75H15.75C15.8646 22.7457 15.9734 22.6982 16.0546 22.6171C16.1357 22.5359 16.1832 22.4271 16.1875 22.3125V19.25H16.7344L18.8405 26.7969C18.8641 26.8885 18.9168 26.97 18.9906 27.0291C19.0644 27.0883 19.1554 27.1219 19.25 27.125H24.5C24.6706 27.1233 24.8392 27.088 24.9961 27.0211C25.1531 26.9542 25.2953 26.857 25.4147 26.7351C25.534 26.6132 25.6282 26.469 25.6918 26.3107C25.7554 26.1524 25.7872 25.9831 25.7854 25.8125C25.7854 25.3715 25.5824 24.9856 25.3207 24.773C25.0873 24.5886 24.7965 24.492 24.4991 24.5H20.8898L19.3865 19.25H21.4366C21.5513 19.2457 21.6601 19.1982 21.7412 19.1171C21.8223 19.0359 21.8698 18.9271 21.8741 18.8125C21.8741 18.8125 21.8864 17.8456 21.4646 16.8709C21.0796 15.9845 20.2458 15.0631 18.8116 14.9021V12.25C18.8116 11.3811 18.5273 10.507 17.9366 9.84375C17.346 9.1805 16.4439 8.75 15.3116 8.75H8.80425C9.4815 8.04737 9.86212 7.16625 9.7335 6.23438L9.296 2.926C9.1735 2.03 8.62225 1.2985 7.847 0.79275C7.07262 0.287 6.06025 0.00875 4.977 0H4.83962H4.8405ZM1.31163 9.625H4.921L4.97612 10.0896V10.1168C4.97612 10.1255 4.9735 10.1255 4.97612 10.1447C4.97753 10.1537 4.97753 10.1629 4.97612 10.1719C4.98137 10.2078 4.9945 10.2489 5.00325 10.3084L5.03038 10.5H1.31163C1.2145 10.5 1.09288 10.4353 1.01063 10.3635C0.96424 10.329 0.92738 10.2833 0.903504 10.2306C0.879628 10.178 0.869519 10.1201 0.874125 10.0625C0.874125 9.898 0.92925 9.807 1.01063 9.73438C1.09562 9.66418 1.2014 9.62554 1.31163 9.625ZM7.62825 9.625H15.3116C16.2286 9.625 16.8516 9.9365 17.2804 10.4178C17.7091 10.899 17.9366 11.5719 17.9366 12.25V14.8479H17.0616V13.125C17.0616 12.5869 17.0573 11.9298 16.6793 11.375C16.3004 10.8202 15.5698 10.5 14.4366 10.5H7.65537L7.546 9.67925C7.56437 9.66963 7.58275 9.66438 7.60113 9.65388C7.6125 9.64513 7.61687 9.63287 7.62825 9.62675V9.625ZM7.76475 11.375H14.4366C15.4131 11.375 15.7806 11.592 15.9679 11.8676C16.156 12.1424 16.1866 12.6088 16.1866 13.125V14.875H8.25912L7.7665 11.375H7.76475ZM9.18662 19.25H14.4366V21H9.18662V19.25ZM17.6356 19.25H18.4844L20.1513 25.0469C20.1749 25.1388 20.2279 25.2205 20.302 25.2797C20.3762 25.3388 20.4676 25.3723 20.5625 25.375H24.5C24.5613 25.375 24.696 25.3969 24.773 25.459C24.8491 25.5203 24.9095 25.6025 24.9095 25.8143C24.9095 26.026 24.8491 26.0802 24.773 26.1424C24.6932 26.2028 24.5986 26.2406 24.4991 26.2518H19.5773L17.6365 19.2518L17.6356 19.25Z" fill="#AA2F4C"/>
</svg>
