<svg width="20" height="21" viewBox="0 0 20 21" fill="none" xmlns="http://www.w3.org/2000/svg">
<path d="M12.2763 3.98624C11.1128 3.98639 10.1693 4.92954 10.1693 6.09324C10.1695 6.66887 10.4005 7.19016 10.7745 7.57018C10.8377 7.63452 10.8733 7.66987 10.9078 7.75019C10.9421 7.83067 10.932 7.96339 10.9149 8.06593C10.7969 8.76259 10.5774 9.28328 10.3208 9.67342C10.8102 10.2257 11.3457 10.3075 11.3718 10.3111L11.4729 10.3225C11.6502 9.86368 11.9238 9.24619 12.1251 8.68166C12.1842 8.5155 12.2656 8.34617 12.3616 8.27867C12.4579 8.21101 12.6797 8.17091 12.8673 8.11626C13.7431 7.86069 14.3833 7.05182 14.3833 6.09322C14.3833 4.92952 13.4401 3.98639 12.2763 3.98624ZM13.4152 6.09322C13.4155 6.72239 12.9055 7.23239 12.2763 7.2321C11.6473 7.23223 11.1373 6.72223 11.1374 6.09322C11.1374 5.46435 11.6474 4.95435 12.2764 4.95448C12.9052 4.95435 13.4152 5.46435 13.4152 6.09322Z" fill="#212121"/>
<path d="M9.08389 8.06272C9.06645 7.96048 9.05664 7.82774 9.0908 7.74714C9.12514 7.66667 9.16076 7.63132 9.22393 7.56698C9.59823 7.18694 9.82901 6.66564 9.82917 6.09002C9.82915 4.92632 8.886 3.98317 7.72232 3.98317C6.55848 3.98305 5.61519 4.92634 5.61547 6.09002C5.61547 7.04862 6.25547 7.85761 7.13139 8.11306C7.3189 8.16759 7.54071 8.20769 7.63693 8.2753C7.73314 8.34296 7.81419 8.5123 7.87349 8.67831C8.16398 9.49267 8.6049 10.4176 8.69029 10.8163C8.69029 10.8163 9.25973 18.3898 9.37369 19.3579C9.48764 20.326 9.65842 20.6676 9.99995 20.6676C10.3416 20.6677 10.5127 20.3259 10.6265 19.3579C10.7403 18.39 11.3096 10.8163 11.3096 10.8163C11.3096 10.8163 9.51588 10.6173 9.08389 8.06272ZM6.58344 6.09017C6.58331 5.46116 7.09331 4.95116 7.72234 4.95128C8.35121 4.95128 8.86107 5.46115 8.86105 6.09C8.86133 6.71918 8.35133 7.22918 7.72232 7.22905C7.09331 7.22891 6.58344 6.71904 6.58344 6.09017ZM10.3986 11.5565C10.3986 11.7769 10.2202 11.9553 9.99997 11.9552C9.77969 11.9551 9.60141 11.7768 9.60129 11.5565C9.60143 11.3366 9.77985 11.1582 9.99995 11.1579C10.2202 11.158 10.3983 11.3364 10.3986 11.5565Z" fill="#212121"/>
</svg>
