<svg width="24" height="24" viewBox="0 0 24 24" fill="none" xmlns="http://www.w3.org/2000/svg">
<path d="M12 15C13.6569 15 15 13.6569 15 12C15 10.3431 13.6569 9 12 9C10.3431 9 9 10.3431 9 12C9 13.6569 10.3431 15 12 15Z" stroke="#373737" stroke-width="1.5" stroke-linecap="round"/>
<path fill-rule="evenodd" clip-rule="evenodd" d="M10.069 3.36281C10.7151 1.54573 13.2849 1.54573 13.931 3.3628C14.338 4.5071 15.6451 5.04852 16.742 4.52713C18.4837 3.69918 20.3008 5.51625 19.4729 7.25803C18.9515 8.35491 19.4929 9.66203 20.6372 10.069C22.4543 10.7151 22.4543 13.2849 20.6372 13.931C19.4929 14.338 18.9515 15.6451 19.4729 16.742C20.3008 18.4837 18.4837 20.3008 16.742 19.4729C15.6451 18.9515 14.338 19.4929 13.931 20.6372C13.2849 22.4543 10.7151 22.4543 10.069 20.6372C9.66203 19.4929 8.35491 18.9515 7.25803 19.4729C5.51625 20.3008 3.69918 18.4837 4.52713 16.742C5.04852 15.6451 4.5071 14.338 3.3628 13.931C1.54573 13.2849 1.54573 10.7151 3.36281 10.069C4.5071 9.66203 5.04852 8.35491 4.52713 7.25803C3.69918 5.51625 5.51625 3.69918 7.25803 4.52713C8.35491 5.04852 9.66203 4.5071 10.069 3.36281Z" stroke="#373737" stroke-width="1.5" stroke-linecap="round"/>
</svg>
