<svg width="17" height="20" viewBox="0 0 17 20" fill="none" xmlns="http://www.w3.org/2000/svg">
<path d="M5.82437 11.2582L11.516 14.5748M11.5077 5.42485L5.82437 8.74151M16.166 4.1665C16.166 5.54722 15.0467 6.6665 13.666 6.6665C12.2853 6.6665 11.166 5.54722 11.166 4.1665C11.166 2.78579 12.2853 1.6665 13.666 1.6665C15.0467 1.6665 16.166 2.78579 16.166 4.1665ZM6.16602 9.99984C6.16602 11.3805 5.04673 12.4998 3.66602 12.4998C2.2853 12.4998 1.16602 11.3805 1.16602 9.99984C1.16602 8.61913 2.2853 7.49984 3.66602 7.49984C5.04673 7.49984 6.16602 8.61913 6.16602 9.99984ZM16.166 15.8332C16.166 17.2139 15.0467 18.3332 13.666 18.3332C12.2853 18.3332 11.166 17.2139 11.166 15.8332C11.166 14.4525 12.2853 13.3332 13.666 13.3332C15.0467 13.3332 16.166 14.4525 16.166 15.8332Z" stroke="#373737" stroke-width="1.5" stroke-linecap="round" stroke-linejoin="round"/>
</svg>
