<svg width="18" height="20" viewBox="0 0 18 20" fill="none" xmlns="http://www.w3.org/2000/svg">
<path d="M11.267 13.7872C11.219 13.0998 11.2055 12.4102 11.2266 11.7213L11.2259 11.7515C11.8107 11.1133 12.1755 10.2871 12.2619 9.405L12.2634 9.38782C12.5269 9.36491 12.9427 9.09491 13.064 8.02473C13.1005 7.84042 13.0867 7.64896 13.0242 7.47258C12.9616 7.29619 12.8527 7.1421 12.7103 7.02819L12.708 7.02655C13.137 5.66837 14.0277 1.46619 11.0595 1.03255C10.7541 0.468004 9.97222 0.181641 8.95563 0.181641C4.8885 0.260186 4.39808 3.41428 5.28721 7.02655C5.14364 7.14151 5.03414 7.29712 4.97152 7.4752C4.90889 7.65327 4.89573 7.84644 4.93358 8.0321L4.9328 8.02555C5.05716 9.0941 5.46985 9.36573 5.73333 9.38864C5.82575 10.2806 6.20211 11.1134 6.80121 11.7515C6.82091 12.4525 6.80586 13.1541 6.75613 13.8535L6.76002 13.7872C5.95328 16.065 0.522144 15.4252 0.273438 19.818H17.728C17.4777 15.4252 12.0715 16.065 11.2663 13.7872H11.267Z" fill="#373737"/>
</svg>
