<svg width="110" height="64" viewBox="0 0 110 64" fill="none" xmlns="http://www.w3.org/2000/svg">
<path d="M22.3415 0.0753351H30.243V2.3032C29.8043 2.18311 29.3412 2.18311 28.9025 2.3032C28.5535 2.46372 28.2586 2.72166 28.0535 3.04582C27.7438 3.60269 27.604 4.23767 27.6514 4.87269V63.6883H20.1074L5.27257 12.5365V58.8761C5.22003 59.4973 5.36046 60.1195 5.67474 60.6584C5.88296 60.9799 6.17698 61.237 6.52373 61.401C6.96245 61.5211 7.4255 61.5211 7.86422 61.401V63.718H0V61.401C0.408531 61.5198 0.842589 61.5198 1.25112 61.401C1.60646 61.2317 1.91369 60.9764 2.14479 60.6584C2.49053 60.1313 2.64794 59.5034 2.5916 58.8761V4.86525C2.64497 4.22412 2.48819 3.58302 2.14479 3.03839C1.91789 2.7165 1.60954 2.46027 1.25112 2.29577C0.842589 2.17695 0.408531 2.17695 0 2.29577V0.0679016H9.11534L24.9331 54.2793V4.86525C24.9865 4.22412 24.8297 3.58302 24.4863 3.03839C24.2594 2.7165 23.9511 2.46027 23.5926 2.29577C23.1841 2.17695 22.7501 2.17695 22.3415 2.29577V0.0753351Z" fill="black"/>
<path d="M90.3481 58.9802C90.361 59.5656 90.5706 60.1297 90.9433 60.5821C91.316 61.0346 91.8302 61.3492 92.4035 61.4754C92.9331 61.5945 93.4826 61.5945 94.0121 61.4754V63.7033H80.8828V61.4754C81.3519 61.5946 81.8435 61.5946 82.3126 61.4754C82.6515 61.3172 82.9326 61.0576 83.1169 60.7328C83.382 60.1774 83.4452 59.5473 83.2956 58.9505C83.2956 58.8317 83.1318 57.7771 82.8041 55.7869C82.4765 53.7967 82.0842 51.1802 81.6275 47.9375H70.1514C69.5556 51.205 69.0939 53.8339 68.7662 55.8241C68.4385 57.8143 68.2747 58.8688 68.2747 58.9877C68.0822 59.569 68.098 60.199 68.3194 60.77C68.4751 61.0952 68.7379 61.3573 69.0641 61.5126C69.533 61.6333 70.025 61.6333 70.4939 61.5126V63.7405H61.9297V61.5126C62.4593 61.6314 63.0087 61.6314 63.5383 61.5126C64.0265 61.3789 64.4725 61.1233 64.8341 60.77C65.2909 60.2749 65.5869 59.6536 65.6831 58.9877C65.6831 58.9283 65.832 58.0519 66.1299 56.3588C66.4278 54.6656 66.8299 52.4377 67.3363 49.6752C67.8328 46.9126 68.4137 43.7788 69.079 40.2736C69.7443 36.7684 70.3996 33.1741 71.045 29.4907L76.407 0.261154H80.9647C82.6924 11.1529 84.2414 20.8664 85.6117 29.4016C86.2075 33.085 86.7735 36.6793 87.3097 40.1845C87.8459 43.6897 88.3424 46.8235 88.7991 49.5861C89.2459 52.3486 89.6183 54.5914 89.9162 56.3142C90.2141 58.0371 90.3581 58.9258 90.3481 58.9802ZM70.5089 45.613H81.3222C80.9647 43.1772 80.5625 40.5632 80.1157 37.771C79.6688 34.9787 79.222 32.1716 78.7752 29.3496C78.3284 26.5277 77.8815 23.78 77.4347 21.1065C76.9879 18.4331 76.5857 15.9577 76.2283 13.6803C75.7318 15.9379 75.2552 18.4133 74.7984 21.1065C74.3417 23.7998 73.8452 26.5475 73.309 29.3496C72.8125 32.1716 72.316 34.9787 71.8196 37.771L70.5089 45.613Z" fill="black"/>
<path d="M106.95 58.8899C106.903 59.5249 107.042 60.1598 107.352 60.7167C107.515 61.0185 107.779 61.2547 108.097 61.3851C108.277 61.4741 108.476 61.5204 108.678 61.5204C108.879 61.5204 109.078 61.4741 109.258 61.3851V63.702H98.4824V61.3851C98.6785 61.4755 98.8919 61.5224 99.108 61.5224C99.324 61.5224 99.5375 61.4755 99.7335 61.3851C100.016 61.2296 100.248 60.9979 100.404 60.7167C100.713 60.1598 100.853 59.5249 100.806 58.8899V4.7973C100.859 4.13339 100.72 3.46827 100.404 2.88137C100.224 2.59787 99.9974 2.34678 99.7335 2.13875C99.325 2.01993 98.891 2.01993 98.4824 2.13875V0H109.296V2.13875C108.918 2.01823 108.512 2.01823 108.134 2.13875C107.83 2.32358 107.575 2.57819 107.389 2.88137C107.073 3.46827 106.934 4.13339 106.987 4.7973L106.95 58.8899Z" fill="black"/>
<path d="M52.2571 9.15733C51.9032 9.1593 51.5504 9.11685 51.2071 9.03105C50.334 8.80265 49.547 8.3245 48.9431 7.6555C48.3393 6.98649 47.945 6.15587 47.8088 5.26609C47.6726 4.37631 47.8006 3.46622 48.1768 2.64806C48.553 1.82989 49.1611 1.13943 49.9261 0.661737C50.4229 0.352748 50.9767 0.146207 51.5549 0.0543682C52.1331 -0.0374709 52.7238 -0.0127675 53.2923 0.127026C54.4605 0.425494 55.4645 1.16929 56.0885 2.19838C56.7124 3.22747 56.9063 4.45966 56.6286 5.62988C56.4938 6.21976 56.2427 6.777 55.8898 7.26914C55.5369 7.76127 55.0893 8.17845 54.5732 8.49638C53.8785 8.92866 53.076 9.15768 52.2571 9.15733ZM52.2571 1.48604C51.7123 1.48539 51.1782 1.63717 50.7155 1.92416C50.3665 2.13857 50.0641 2.42058 49.8262 2.75349C49.5883 3.08639 49.4197 3.46347 49.3304 3.86243C49.1423 4.64972 49.2708 5.47913 49.6884 6.17311C50.106 6.86709 50.7794 7.37049 51.5645 7.57554C51.9419 7.6682 52.3341 7.68436 52.7178 7.62313C53.1016 7.5619 53.4691 7.4245 53.7987 7.21905C54.1474 7.00431 54.4496 6.72226 54.6875 6.3894C54.9254 6.05655 55.0941 5.67963 55.1838 5.28082C55.3719 4.49353 55.2434 3.66412 54.8258 2.97015C54.4082 2.27617 53.7348 1.77277 52.9497 1.56771C52.7201 1.51439 52.4853 1.487 52.2496 1.48604H52.2571Z" fill="white"/>
<path d="M38.5694 11.6088C38.0175 11.6076 37.4711 11.4992 36.9608 11.2894C36.3643 11.0388 35.8251 10.67 35.3757 10.2053C34.9264 9.74069 34.5764 9.18985 34.3469 8.5863C33.8654 7.43247 33.8405 6.13955 34.2772 4.96815C34.7139 3.79674 35.5797 2.83398 36.7002 2.27401C37.2247 2.03578 37.7926 1.90699 38.3689 1.8955C38.9452 1.884 39.5177 1.99007 40.0514 2.2072C40.6477 2.4596 41.1871 2.82894 41.6374 3.29331C42.0877 3.75767 42.4398 4.3076 42.6728 4.91036C43.1523 6.06634 43.1755 7.3604 42.7375 8.53267C42.2996 9.70495 41.4331 10.6686 40.3121 11.2301C39.7651 11.4793 39.1708 11.6084 38.5694 11.6088ZM38.4428 3.38056C38.0546 3.38033 37.671 3.4639 37.3183 3.62559C36.5339 4.02645 35.9327 4.7111 35.6379 5.53939C35.343 6.36768 35.3767 7.27698 35.732 8.08132C35.8864 8.49939 36.1253 8.88131 36.4341 9.20327C36.7429 9.52523 37.1148 9.78035 37.5268 9.95274C37.8699 10.1016 38.24 10.1784 38.6141 10.1784C38.9882 10.1784 39.3583 10.1016 39.7014 9.95274C40.4845 9.55053 41.0845 8.86583 41.3792 8.03803C41.6739 7.21024 41.6412 6.30158 41.2877 5.49701C41.131 5.08023 40.8912 4.69949 40.5827 4.37782C40.2742 4.05615 39.9034 3.80023 39.4929 3.62559C39.1717 3.4793 38.8253 3.39613 38.4726 3.38056H38.4428Z" fill="white"/>
<path d="M30.5403 53.1357C30.2275 54.7695 29.6094 55.8165 29.6094 58.0444L30.5254 62.9382L45.3005 19.7548C45.3825 18.8637 45.4569 17.9651 45.5388 17.0666C45.5388 17.0071 46.2836 16.0492 45.9559 15.8413C45.6282 15.6333 44.2952 16.1606 44.2654 16.2497C39.6928 28.5574 35.1178 40.8527 30.5403 53.1357Z" fill="white"/>
<path d="M59.5694 63.9997L45.1367 20.3707L45.8814 12.5435C45.8814 12.3727 46.2091 11.9939 46.6262 13.1152C46.7081 13.3677 46.6932 12.6474 46.7527 12.64C46.8123 12.6325 46.7974 12.7142 46.7974 12.7217C46.8644 12.9222 52.3605 29.4381 60.1651 52.8604C60.5141 55.0707 60.5891 57.3154 60.3885 59.5439C60.2419 61.0496 59.9679 62.5401 59.5694 63.9997Z" fill="white"/>
<path d="M36.0665 2.66635C34.7051 2.75457 33.3544 2.96334 32.0301 3.29017C31.2876 3.43511 30.6085 3.80614 30.0864 4.35212C29.8534 4.60859 29.6532 4.89298 29.4906 5.19872C29.3505 5.69629 29.4092 6.22865 29.6545 6.68396C29.8241 6.97561 30.086 7.20285 30.3992 7.33004C30.252 6.93522 30.2144 6.50807 30.2904 6.09372C30.3664 5.67937 30.5533 5.2932 30.8311 4.97594C31.0293 4.83796 31.2566 4.74739 31.4956 4.71132C31.7345 4.67526 31.9786 4.69466 32.2088 4.76798C33.6983 5.07246 34.5249 6.71364 34.7111 7.12951C35.1579 5.64922 35.6097 4.1615 36.0665 2.66635Z" fill="white"/>
<path d="M48.0099 5.85635L44.4844 16.3089L45.8961 16.7824L49.4217 6.32984L48.0099 5.85635Z" fill="white"/>
<path d="M42.763 7.83583L41.3203 8.2052L44.3225 19.8649L45.7651 19.4955L42.763 7.83583Z" fill="white"/>
</svg>
