<svg width="659" height="140" viewBox="0 0 659 140" fill="none" xmlns="http://www.w3.org/2000/svg">
<g opacity="0.17">
<rect x="0.5" y="-0.5" width="71.3077" height="71.3077" rx="0.5" transform="matrix(1 0 0 -1 27.6914 71.3076)" stroke="#212121"/>
<rect x="0.5" y="-0.5" width="71.3077" height="71.3077" rx="0.5" transform="matrix(1 0 0 -1 72.3086 86.6924)" stroke="#212121"/>
<rect x="0.5" y="-0.5" width="71.3077" height="71.3077" rx="0.5" transform="matrix(1 0 0 -1 378.461 86.6924)" stroke="#212121"/>
<rect x="0.5" y="-0.5" width="85.1538" height="85.1538" rx="0.5" transform="matrix(1 0 0 -1 0 106.692)" stroke="#212121"/>
<rect x="0.5" y="-0.5" width="74.3846" height="74.3846" rx="0.5" transform="matrix(1 0 0 -1 127.691 108.231)" stroke="#212121"/>
<rect x="466.654" y="54.3462" width="74.3846" height="74.3846" rx="0.5" stroke="#212121"/>
<rect x="0.5" y="-0.5" width="74.3846" height="74.3846" rx="0.5" transform="matrix(1 0 0 -1 433.846 108.231)" stroke="#212121"/>
<rect x="0.5" y="-0.5" width="74.3846" height="74.3846" rx="0.5" transform="matrix(1 0 0 -1 160 74.3845)" stroke="#212121"/>
<rect x="0.5" y="-0.5" width="74.3846" height="74.3846" rx="0.5" transform="matrix(1 0 0 -1 184.615 125.154)" stroke="#212121"/>
<rect x="523.576" y="37.4231" width="74.3846" height="74.3846" rx="0.5" stroke="#212121"/>
<rect x="0.5" y="-0.5" width="74.3846" height="74.3846" rx="0.5" transform="matrix(1 0 0 -1 244.615 97.4614)" stroke="#212121"/>
<rect x="583.576" y="65.1155" width="74.3846" height="74.3846" rx="0.5" stroke="#212121"/>
<rect x="0.5" y="-0.5" width="74.3846" height="74.3846" rx="0.5" transform="matrix(1 0 0 -1 329.23 120.539)" stroke="#212121"/>
<rect x="0.5" y="-0.5" width="74.3846" height="74.3846" rx="0.5" transform="matrix(1 0 0 -1 287.691 139)" stroke="#212121"/>
<rect x="0.5" y="-0.5" width="74.3846" height="74.3846" rx="0.5" transform="matrix(1 0 0 -1 270.77 83.6155)" stroke="#212121"/>
</g>
</svg>
