<svg width="21" height="20" viewBox="0 0 21 20" fill="none" xmlns="http://www.w3.org/2000/svg">
<path d="M10.6533 14.0626C8.51279 14.0626 5.41771 10.9643 5.06342 7.67346C5.0612 7.65306 5.06302 7.63242 5.06878 7.61272C5.07454 7.59302 5.08413 7.57466 5.097 7.55867C5.10987 7.54268 5.12577 7.52939 5.14378 7.51956C5.16179 7.50972 5.18157 7.50353 5.20197 7.50135C5.29244 7.49342 5.3649 7.55416 5.37408 7.6399C5.53322 9.11764 6.28971 10.6787 7.4499 11.9231C8.50072 13.05 9.72822 13.7501 10.6533 13.7501C12.6515 13.7501 15.9655 10.4962 15.9655 7.03174C15.9655 6.94537 16.0354 6.87549 16.1217 6.87549C16.1423 6.87548 16.1626 6.87951 16.1815 6.88736C16.2005 6.89521 16.2177 6.90672 16.2322 6.92123C16.2467 6.93574 16.2582 6.95297 16.2661 6.97193C16.2739 6.9909 16.278 7.01122 16.2779 7.03174C16.2779 10.7763 12.7723 14.0626 10.6533 14.0626Z" fill="#BD227F"/>
<path d="M19.245 19.9996H2.05859C1.97223 19.9996 1.90234 19.9297 1.90234 19.8433V17.9685C1.90234 16.6276 2.59703 16.1137 3.87871 15.6346C4.07965 15.5595 4.32133 15.4826 4.58438 15.3994C5.82621 15.0048 7.52699 14.4641 7.52699 13.2812C7.52699 13.1949 7.59688 13.125 7.68324 13.125C7.76961 13.125 7.83949 13.1949 7.83949 13.2812C7.83949 14.6929 6.01281 15.2733 4.67898 15.6969C4.42145 15.779 4.18477 15.854 3.98813 15.9276C2.78672 16.3768 2.21484 16.7966 2.21484 17.9685V19.6871H19.0888V17.9685C19.0888 16.7966 18.517 16.3768 17.3155 15.9276C17.119 15.854 16.8822 15.7787 16.6243 15.6969C15.2908 15.2733 13.4642 14.6929 13.4642 13.2812C13.4642 13.1949 13.5341 13.125 13.6204 13.125C13.7068 13.125 13.7766 13.1949 13.7766 13.2812C13.7766 14.464 15.4773 15.0048 16.7189 15.3991C16.9823 15.4827 17.224 15.5595 17.4248 15.6346C18.7067 16.1137 19.4013 16.6276 19.4013 17.9685V19.8433C19.4013 19.8638 19.3972 19.8842 19.3894 19.9031C19.3815 19.9221 19.37 19.9393 19.3555 19.9538C19.341 19.9683 19.3238 19.9798 19.3048 19.9877C19.2858 19.9955 19.2655 19.9996 19.245 19.9996Z" fill="#BD227F"/>
<path d="M7.68344 13.4371C7.59707 13.4371 7.52719 13.3673 7.52719 13.2809V12.3822C7.52719 12.2958 7.59707 12.226 7.68344 12.226C7.76981 12.226 7.83969 12.2958 7.83969 12.3822V13.2809C7.8397 13.3014 7.83566 13.3218 7.82781 13.3407C7.81996 13.3597 7.80846 13.3769 7.79394 13.3914C7.77943 13.4059 7.7622 13.4174 7.74324 13.4253C7.72428 13.4331 7.70396 13.4371 7.68344 13.4371ZM13.6205 13.4371C13.6 13.4371 13.5797 13.4331 13.5608 13.4253C13.5418 13.4174 13.5246 13.4059 13.5101 13.3914C13.4956 13.3769 13.4841 13.3597 13.4762 13.3407C13.4684 13.3218 13.4643 13.3014 13.4643 13.2809V12.3819C13.4643 12.2955 13.5342 12.2256 13.6205 12.2256C13.7069 12.2256 13.7768 12.2955 13.7768 12.3819V13.2809C13.7768 13.3014 13.7728 13.3218 13.7649 13.3407C13.7571 13.3597 13.7456 13.3769 13.7311 13.3914C13.7165 13.4059 13.6993 13.4174 13.6804 13.4253C13.6614 13.4331 13.6411 13.4371 13.6205 13.4371ZM16.7454 6.40635C16.7248 6.40636 16.7045 6.40232 16.6856 6.39447C16.6666 6.38663 16.6494 6.37512 16.6349 6.3606C16.6203 6.34609 16.6088 6.32886 16.601 6.3099C16.5932 6.29094 16.5891 6.27062 16.5891 6.2501C16.5891 2.97635 13.9257 0.312949 10.652 0.312949C7.37824 0.312949 4.71484 2.97635 4.71484 6.2501C4.71484 6.33646 4.64496 6.40635 4.55859 6.40635C4.47223 6.40635 4.40234 6.33646 4.40234 6.2501C4.40234 2.80412 7.20598 0.000488281 10.652 0.000488281C14.0981 0.000488281 16.9016 2.80412 16.9016 6.2501C16.9016 6.27062 16.8976 6.29094 16.8897 6.30991C16.8819 6.32887 16.8704 6.3461 16.8559 6.36062C16.8413 6.37513 16.8241 6.38664 16.8052 6.39448C16.7862 6.40233 16.7659 6.40636 16.7454 6.40635Z" fill="#BD227F"/>
<path d="M18.3085 12.4999C18.2776 12.4999 18.2475 12.4907 18.2218 12.4736C16.2941 11.1883 16.577 6.44158 16.5901 6.24018C16.5959 6.15381 16.6771 6.0917 16.7561 6.09432C16.7974 6.09702 16.836 6.11602 16.8634 6.14715C16.8907 6.17827 16.9046 6.21898 16.902 6.26033C16.8989 6.30779 16.6169 11.0281 18.3951 12.2136C18.423 12.2322 18.4442 12.2593 18.4555 12.2909C18.4668 12.3224 18.4677 12.3568 18.458 12.3889C18.4483 12.421 18.4285 12.4491 18.4016 12.4691C18.3746 12.4891 18.342 12.4999 18.3085 12.4999Z" fill="#BD227F"/>
<path d="M14.2454 13.7499C14.1591 13.7499 14.0892 13.68 14.0892 13.5936C14.0892 13.5072 14.1591 13.4374 14.2454 13.4374C16.6565 13.4374 18.1951 12.2338 18.2104 12.2216C18.2263 12.2088 18.2447 12.1992 18.2644 12.1935C18.2841 12.1878 18.3047 12.186 18.3251 12.1882C18.3455 12.1905 18.3653 12.1968 18.3832 12.2067C18.4012 12.2166 18.417 12.23 18.4298 12.246C18.4835 12.3138 18.4725 12.412 18.4054 12.4658C18.3398 12.5183 16.7709 13.7499 14.2454 13.7499ZM2.99629 12.4999C2.97054 12.5 2.94518 12.4936 2.92247 12.4815C2.89976 12.4694 2.88041 12.4518 2.86614 12.4304C2.85474 12.4133 2.84682 12.3942 2.84283 12.374C2.83883 12.3539 2.83885 12.3332 2.84287 12.313C2.8469 12.2929 2.85485 12.2738 2.86627 12.2567C2.8777 12.2397 2.89237 12.2251 2.90946 12.2137C4.68868 11.0276 4.40567 6.30787 4.40262 6.26041C4.4 6.21906 4.41388 6.17836 4.44122 6.14724C4.46857 6.11612 4.50714 6.09711 4.54848 6.09439C4.63344 6.09072 4.70899 6.15419 4.7145 6.24025C4.72746 6.44166 5.01067 11.1884 3.08282 12.4737C3.05719 12.4908 3.02709 12.4999 2.99629 12.4999Z" fill="#BD227F"/>
<path d="M7.0583 13.7497C4.53268 13.7497 2.964 12.5181 2.89838 12.4656C2.83111 12.4119 2.82025 12.3136 2.87396 12.2459C2.8999 12.2136 2.93756 12.1929 2.97871 12.1884C3.01986 12.1838 3.06114 12.1957 3.09353 12.2215C3.10881 12.2337 4.6474 13.4372 7.0583 13.4372C7.14467 13.4372 7.21455 13.5071 7.21455 13.5935C7.21455 13.6799 7.14467 13.7497 7.0583 13.7497ZM4.57783 7.17481C4.53719 7.17498 4.49808 7.15931 4.4688 7.13112C4.43953 7.10293 4.42238 7.06444 4.42102 7.02382C4.41965 6.9832 4.43416 6.94365 4.46148 6.91355C4.48879 6.88346 4.52676 6.86519 4.56732 6.86263C8.67564 6.5831 11.3476 5.34556 12.8654 4.35669C14.5087 3.28622 15.1911 2.26849 15.1978 2.25825C15.2454 2.1861 15.3427 2.16642 15.4141 2.21372C15.4487 2.23646 15.4729 2.27201 15.4813 2.31255C15.4897 2.35309 15.4817 2.3953 15.459 2.42993C15.4315 2.47188 12.6131 6.62845 4.58869 7.1745C4.58498 7.17466 4.58135 7.17481 4.57783 7.17481Z" fill="#BD227F"/>
<path d="M16.7374 6.57202C16.7332 6.57202 16.7292 6.57187 16.7249 6.57155C14.58 6.4039 12.6642 4.84405 12.5836 4.77769C12.5678 4.76464 12.5547 4.7486 12.5451 4.73048C12.5355 4.71237 12.5295 4.69254 12.5276 4.67213C12.5256 4.65171 12.5277 4.63111 12.5337 4.6115C12.5397 4.59189 12.5495 4.57366 12.5626 4.55784C12.6175 4.49069 12.7161 4.4823 12.7823 4.53647C12.8015 4.55218 14.7042 6.10022 16.7493 6.25999C16.7698 6.26159 16.7897 6.26721 16.808 6.27653C16.8263 6.28584 16.8426 6.29866 16.8559 6.31427C16.8692 6.32987 16.8793 6.34795 16.8856 6.36746C16.892 6.38698 16.8944 6.40755 16.8928 6.428C16.8897 6.46713 16.872 6.50368 16.8432 6.53037C16.8145 6.55705 16.7767 6.57193 16.7374 6.57202ZM10.6691 17.4994C8.60348 17.4994 7.52172 16.7969 6.97809 16.2076C6.37906 15.5586 6.28262 14.9092 6.27883 14.8817C6.26691 14.7969 6.32629 14.7182 6.41156 14.706C6.49457 14.6925 6.57559 14.753 6.58824 14.8384C6.60211 14.9342 6.97351 17.1869 10.6691 17.1869C14.3624 17.1869 14.703 14.9361 14.7155 14.8403C14.7268 14.7548 14.8055 14.6932 14.8904 14.7054C14.9314 14.7106 14.9686 14.7319 14.994 14.7646C15.0193 14.7972 15.0307 14.8386 15.0255 14.8796C15.0222 14.9068 14.9346 15.5568 14.3438 16.2068C13.8076 16.7963 12.735 17.4994 10.6691 17.4994ZM16.4329 19.9992C16.3465 19.9992 16.2766 19.9293 16.2766 19.843V15.4713C16.2766 15.385 16.3465 15.3151 16.4329 15.3151C16.5193 15.3151 16.5891 15.385 16.5891 15.4713V19.843C16.5891 19.9293 16.5193 19.9992 16.4329 19.9992ZM4.87109 19.9992H4.87094C4.78461 19.9992 4.71469 19.929 4.71484 19.843L4.72035 15.4695C4.72043 15.4281 4.73693 15.3884 4.76623 15.3592C4.79552 15.33 4.83522 15.3135 4.8766 15.3135H4.87676C4.96313 15.3139 5.03301 15.3837 5.03285 15.4701L5.02734 19.843C5.02731 19.8844 5.01084 19.9241 4.98154 19.9534C4.95225 19.9827 4.91252 19.9992 4.87109 19.9992Z" fill="#BD227F"/>
</svg>
