<svg width="29" height="28" viewBox="0 0 29 28" fill="none" xmlns="http://www.w3.org/2000/svg">
<rect x="0.5" width="28" height="28" rx="14" fill="#BD2292" fill-opacity="0.18"/>
<path d="M14.5005 17.6564C12.574 17.6564 9.78844 14.8679 9.46958 11.9062C9.46758 11.8878 9.46922 11.8692 9.4744 11.8515C9.47959 11.8338 9.48822 11.8172 9.4998 11.8029C9.51139 11.7885 9.52569 11.7765 9.5419 11.7676C9.55811 11.7588 9.57591 11.7532 9.59428 11.7513C9.6757 11.7441 9.74091 11.7988 9.74917 11.876C9.8924 13.2059 10.5732 14.6108 11.6174 15.7308C12.5632 16.7451 13.6679 17.3751 14.5005 17.3751C16.2988 17.3751 19.2814 14.4466 19.2814 11.3286C19.2814 11.2509 19.3443 11.188 19.4221 11.188C19.4405 11.188 19.4588 11.1916 19.4759 11.1987C19.4929 11.2057 19.5085 11.2161 19.5215 11.2292C19.5346 11.2422 19.5449 11.2577 19.552 11.2748C19.559 11.2919 19.5627 11.3101 19.5627 11.3286C19.5627 14.6987 16.4076 17.6564 14.5005 17.6564Z" fill="#BD227F"/>
<path d="M22.2334 22.9996H6.76563C6.68789 22.9996 6.625 22.9367 6.625 22.859V21.1716C6.625 19.9649 7.25022 19.5023 8.40373 19.0711C8.58457 19.0036 8.80209 18.9344 9.03883 18.8594C10.1565 18.5043 11.6872 18.0177 11.6872 16.9531C11.6872 16.8754 11.7501 16.8125 11.8278 16.8125C11.9055 16.8125 11.9684 16.8754 11.9684 16.9531C11.9684 18.2236 10.3244 18.746 9.12398 19.1272C8.89219 19.2011 8.67918 19.2686 8.5022 19.3348C7.42094 19.7391 6.90625 20.117 6.90625 21.1716V22.7184H22.0928V21.1716C22.0928 20.117 21.5781 19.7391 20.4969 19.3348C20.32 19.2686 20.1069 19.2008 19.8748 19.1272C18.6746 18.746 17.0307 18.2236 17.0307 16.9531C17.0307 16.8754 17.0935 16.8125 17.1712 16.8125C17.249 16.8125 17.3119 16.8754 17.3119 16.9531C17.3119 18.0176 18.8424 18.5043 19.9599 18.8592C20.197 18.9344 20.4145 19.0036 20.5952 19.0711C21.7489 19.5023 22.3741 19.9649 22.3741 21.1716V22.859C22.3741 22.8775 22.3704 22.8957 22.3633 22.9128C22.3563 22.9299 22.3459 22.9454 22.3329 22.9584C22.3198 22.9715 22.3043 22.9819 22.2872 22.9889C22.2702 22.996 22.2519 22.9996 22.2334 22.9996Z" fill="#BD227F"/>
<path d="M11.828 17.0935C11.7503 17.0935 11.6874 17.0306 11.6874 16.9529V16.144C11.6874 16.0663 11.7503 16.0034 11.828 16.0034C11.9057 16.0034 11.9686 16.0663 11.9686 16.144V16.9529C11.9686 16.9713 11.965 16.9896 11.9579 17.0067C11.9509 17.0238 11.9405 17.0393 11.9274 17.0523C11.9144 17.0654 11.8989 17.0757 11.8818 17.0828C11.8647 17.0899 11.8465 17.0935 11.828 17.0935ZM17.1714 17.0935C17.1529 17.0935 17.1346 17.0898 17.1176 17.0828C17.1005 17.0757 17.085 17.0654 17.072 17.0523C17.0589 17.0393 17.0485 17.0238 17.0415 17.0067C17.0344 16.9896 17.0308 16.9713 17.0308 16.9529V16.1438C17.0308 16.066 17.0937 16.0031 17.1714 16.0031C17.2491 16.0031 17.312 16.066 17.312 16.1438V16.9529C17.312 16.9713 17.3084 16.9896 17.3013 17.0067C17.2943 17.0238 17.2839 17.0393 17.2708 17.0523C17.2578 17.0654 17.2423 17.0757 17.2252 17.0828C17.2081 17.0899 17.1899 17.0935 17.1714 17.0935ZM19.9837 10.7658C19.9652 10.7658 19.947 10.7621 19.9299 10.7551C19.9128 10.748 19.8973 10.7377 19.8843 10.7246C19.8712 10.7115 19.8609 10.696 19.8538 10.679C19.8467 10.6619 19.8431 10.6436 19.8431 10.6251C19.8431 7.67876 17.4461 5.2817 14.4997 5.2817C11.5533 5.2817 9.15625 7.67876 9.15625 10.6251C9.15625 10.7029 9.09336 10.7658 9.01563 10.7658C8.93789 10.7658 8.875 10.7029 8.875 10.6251C8.875 7.52376 11.3983 5.00049 14.4996 5.00049C17.6012 5.00049 20.1243 7.52376 20.1243 10.6251C20.1243 10.6436 20.1207 10.6619 20.1136 10.679C20.1066 10.696 20.0962 10.7115 20.0832 10.7246C20.0701 10.7377 20.0546 10.748 20.0375 10.7551C20.0205 10.7621 20.0022 10.7658 19.9837 10.7658Z" fill="#BD227F"/>
<path d="M21.3903 16.2499C21.3626 16.2499 21.3354 16.2417 21.3123 16.2263C19.5774 15.0695 19.832 10.7975 19.8438 10.6162C19.849 10.5385 19.9221 10.4826 19.9932 10.4849C20.0304 10.4874 20.0651 10.5045 20.0897 10.5325C20.1143 10.5605 20.1268 10.5971 20.1245 10.6343C20.1217 10.6771 19.8679 14.9253 21.4683 15.9923C21.4934 16.009 21.5125 16.0334 21.5227 16.0618C21.5328 16.0902 21.5336 16.1212 21.5249 16.15C21.5161 16.1789 21.4983 16.2042 21.4741 16.2222C21.4499 16.2402 21.4205 16.2499 21.3903 16.2499Z" fill="#BD227F"/>
<path d="M17.7338 17.3749C17.656 17.3749 17.5932 17.312 17.5932 17.2343C17.5932 17.1566 17.656 17.0937 17.7338 17.0937C19.9037 17.0937 21.2885 16.0105 21.3022 15.9995C21.3166 15.9879 21.3331 15.9793 21.3509 15.9742C21.3686 15.969 21.3872 15.9674 21.4055 15.9695C21.4239 15.9715 21.4416 15.9772 21.4578 15.9861C21.4739 15.995 21.4882 16.007 21.4997 16.0215C21.548 16.0824 21.5381 16.1709 21.4777 16.2192C21.4187 16.2665 20.0067 17.3749 17.7338 17.3749ZM7.60955 16.25C7.58638 16.25 7.56355 16.2443 7.54311 16.2334C7.52267 16.2225 7.50526 16.2067 7.49241 16.1874C7.48215 16.172 7.47503 16.1548 7.47143 16.1367C7.46784 16.1186 7.46786 16.0999 7.47148 16.0818C7.4751 16.0637 7.48225 16.0465 7.49254 16.0311C7.50282 16.0158 7.51603 16.0026 7.5314 15.9924C9.1327 14.9248 8.87799 10.6771 8.87525 10.6344C8.87289 10.5972 8.88538 10.5606 8.90999 10.5326C8.9346 10.5046 8.96932 10.4874 9.00652 10.485C9.08299 10.4817 9.15098 10.5388 9.15594 10.6163C9.16761 10.7975 9.42249 15.0696 7.68742 16.2264C7.66436 16.2417 7.63727 16.25 7.60955 16.25Z" fill="#BD227F"/>
<path d="M11.2654 17.3748C8.9923 17.3748 7.58049 16.2664 7.52143 16.2191C7.46089 16.1708 7.45112 16.0823 7.49946 16.0214C7.5228 15.9923 7.55669 15.9737 7.59373 15.9696C7.63076 15.9655 7.66792 15.9762 7.69707 15.9994C7.71082 16.0104 9.09555 17.0936 11.2654 17.0936C11.3431 17.0936 11.406 17.1565 11.406 17.2342C11.406 17.3119 11.3431 17.3748 11.2654 17.3748ZM9.03294 11.4574C8.99636 11.4575 8.96116 11.4434 8.93481 11.4181C8.90846 11.3927 8.89304 11.358 8.89181 11.3215C8.89058 11.2849 8.90364 11.2493 8.92822 11.2222C8.95281 11.1952 8.98698 11.1787 9.02348 11.1764C12.721 10.9248 15.1257 9.81105 16.4918 8.92107C17.9707 7.95765 18.5849 7.04169 18.5909 7.03247C18.6338 6.96754 18.7213 6.94982 18.7856 6.9924C18.8167 7.01287 18.8385 7.04486 18.846 7.08134C18.8536 7.11783 18.8464 7.15582 18.826 7.18699C18.8012 7.22474 16.2647 10.9657 9.04271 11.4571C9.03937 11.4572 9.0361 11.4574 9.03294 11.4574Z" fill="#BD227F"/>
<path d="M19.9766 10.9152C19.9727 10.9152 19.9692 10.9151 19.9653 10.9148C18.0349 10.7639 16.3107 9.36004 16.2382 9.30031C16.2239 9.28856 16.2121 9.27413 16.2035 9.25783C16.1948 9.24152 16.1895 9.22368 16.1877 9.2053C16.1859 9.18693 16.1878 9.16839 16.1932 9.15074C16.1986 9.13309 16.2075 9.11668 16.2192 9.10245C16.2686 9.04201 16.3574 9.03446 16.417 9.08322C16.4343 9.09735 18.1467 10.4906 19.9873 10.6344C20.0057 10.6358 20.0236 10.6409 20.0401 10.6493C20.0565 10.6576 20.0712 10.6692 20.0832 10.6832C20.0952 10.6973 20.1043 10.7135 20.11 10.7311C20.1157 10.7487 20.1178 10.7672 20.1164 10.7856C20.1136 10.8208 20.0977 10.8537 20.0718 10.8777C20.0459 10.9017 20.0119 10.9151 19.9766 10.9152ZM14.5151 20.7498C12.656 20.7498 11.6824 20.1176 11.1932 19.5873C10.654 19.0031 10.5672 18.4187 10.5638 18.394C10.5531 18.3176 10.6066 18.2467 10.6833 18.2358C10.758 18.2237 10.8309 18.2781 10.8423 18.355C10.8548 18.4412 11.1891 20.4686 14.5151 20.4686C17.8391 20.4686 18.1456 18.4429 18.1568 18.3566C18.167 18.2797 18.2379 18.2242 18.3142 18.2352C18.3511 18.2399 18.3847 18.2591 18.4075 18.2885C18.4303 18.3179 18.4405 18.3551 18.4359 18.3921C18.4329 18.4165 18.354 19.0015 17.8223 19.5865C17.3397 20.117 16.3744 20.7498 14.5151 20.7498ZM19.7025 22.9997C19.6248 22.9997 19.5619 22.9368 19.5619 22.8591V18.9246C19.5619 18.8468 19.6248 18.784 19.7025 18.784C19.7802 18.784 19.8431 18.8468 19.8431 18.9246V22.8591C19.8431 22.9368 19.7802 22.9997 19.7025 22.9997ZM9.29688 22.9997H9.29673C9.21904 22.9997 9.15611 22.9365 9.15625 22.8591L9.16121 18.9229C9.16128 18.8857 9.17613 18.85 9.20249 18.8237C9.22886 18.7974 9.26458 18.7826 9.30183 18.7826H9.30197C9.3797 18.7829 9.4426 18.8458 9.44246 18.9235L9.4375 22.8591C9.43747 22.8963 9.42265 22.9321 9.39628 22.9585C9.36991 22.9848 9.33416 22.9997 9.29688 22.9997Z" fill="#BD227F"/>
</svg>
